<?xml version="1.0" encoding="UTF-8"?>
<svg version="1.1" xmlns="http://www.w3.org/2000/svg" width="500" height="500">
<path d="M0 0 C4.2901188 2.29198128 8.5963775 4.25646075 13.13964844 6.00683594 C27.61139913 11.60003161 42.89180345 18.89180345 54 30 C58.01338935 29.78606667 60.00655041 27.33207602 62.6875 24.5625 C63.47511719 23.75941406 64.26273438 22.95632812 65.07421875 22.12890625 C67.03603929 20.15155947 67.03603929 20.15155947 68 18 C68.66 18 69.32 18 70 18 C70.36351562 17.13568359 70.36351562 17.13568359 70.734375 16.25390625 C73.93335104 10.55696435 80.8184855 4.93929867 87 3 C93.52145065 2.36860091 99.46374776 2.08411427 105 6 C109.78964302 10.34409483 113.68281482 14.19897758 114.23828125 20.85546875 C114.52089133 33.54317377 110.40751615 39.11286483 101.88671875 48.02734375 C100.92584506 49.01955375 99.96365368 50.01048977 99 51 C97.74123047 52.30130859 97.74123047 52.30130859 96.45703125 53.62890625 C93.40955346 56.72743057 90.44548863 59.65660251 87 62.3125 C84.96382574 63.81193044 84.96382574 63.81193044 84.1484375 65.6484375 C83.91336339 69.37250622 85.87806061 72.14443778 87.625 75.3125 C101.95224707 102.614542 104.78052342 135.87521508 99 166 C98.87641113 166.65613281 98.75282227 167.31226563 98.62548828 167.98828125 C92.52419843 199.40437733 77.18246311 230.6080539 50.28027344 249.17993164 C47.79700025 250.8190065 45.28391849 252.39984861 42.74023438 253.94335938 C41.1413619 254.91416746 39.56179096 255.91657882 37.984375 256.921875 C7.98344631 275.44703862 -28.25640025 279.90360093 -62.39111328 272.47998047 C-81.69904177 267.76569464 -99.08529971 258.94571322 -114.46484375 246.37109375 C-117.81265087 244.56049236 -119.39281547 244.94377865 -123 246 C-125.47292066 247.1021404 -125.47292066 247.1021404 -127.875 248.5625 C-132.62888424 251.25571563 -137.43169315 253.79724579 -142.3125 256.25 C-142.98200684 256.5910376 -143.65151367 256.9320752 -144.34130859 257.28344727 C-150.92685971 260.5844281 -156.56256168 262.73155131 -164 262 C-166.0625 260.5 -166.0625 260.5 -167 258 C-166.14362335 246.6767976 -160.86962705 236.51542873 -155.9375 226.4375 C-155.46364868 225.45620117 -155.46364868 225.45620117 -154.98022461 224.45507812 C-153.34092844 221.19244615 -151.72267638 218.6157671 -149.19140625 215.97265625 C-146.68028853 213.16997743 -146.68028853 213.16997743 -146.953125 209.6796875 C-148.20136838 205.29220517 -149.8742869 201.27491369 -151.75 197.125 C-168.14103742 159.28825887 -167.88046806 117.83908857 -152.91015625 79.57421875 C-138.93064892 45.31690223 -111.73057923 20.53588243 -78.15625 5.88964844 C-74.34202013 4.31593312 -70.43568494 3.09224472 -66.4921875 1.890625 C-63.33399485 0.76199189 -60.82717215 -0.8994713 -58.0625 -2.765625 C-39.83575603 -13.6740551 -17.61590259 -9.78084724 0 0 Z " fill="#0F1F2A" transform="translate(281,122)"/>
<path d="M0 0 C0 33.33 0 66.66 0 101 C-8.415 101.495 -8.415 101.495 -17 102 C-20.68725231 102.73137675 -24.01511622 103.46268903 -27.5625 104.5625 C-28.43890137 104.82426025 -29.31530273 105.08602051 -30.21826172 105.35571289 C-42.0585169 109.05942742 -52.64685086 114.81263977 -62.9609375 121.65234375 C-65 123 -65 123 -67 124 C-67.11589741 112.23880398 -67.20471751 100.47774403 -67.25906086 88.71609306 C-67.28514429 83.25453381 -67.32052006 77.79336551 -67.37719727 72.33203125 C-67.43156085 67.06059049 -67.46142997 61.78952555 -67.47438622 56.51782608 C-67.48361822 54.50756031 -67.50164642 52.49731491 -67.52865028 50.48720932 C-67.56499822 47.66924494 -67.56994293 44.8528294 -67.56762695 42.03466797 C-67.58560333 41.20532242 -67.60357971 40.37597687 -67.62210083 39.52149963 C-67.58564134 35.41616133 -67.27166809 32.82123707 -64.63761902 29.5774231 C-50.09667847 15.36833689 -20.61201683 0 0 0 Z " fill="#F5F9F9" transform="translate(323,221)"/>
<path d="M0 0 C16.46276467 3.65839215 30.35470208 8.12995979 45 16 C45.86238281 16.46019531 46.72476563 16.92039063 47.61328125 17.39453125 C55.00027251 21.56479225 61.02289616 27.02289616 67 33 C67.18824486 35.89222553 67.25170246 38.6879814 67.22705078 41.58056641 C67.22734283 42.46843338 67.22763489 43.35630035 67.22793579 44.27107239 C67.22653907 47.21466747 67.21096184 50.15801147 67.1953125 53.1015625 C67.19158358 55.13894513 67.18873604 57.17632954 67.18673706 59.2137146 C67.17909104 64.58301725 67.15943425 69.95221216 67.1373291 75.32147217 C67.11689151 80.79763328 67.10773982 86.27381176 67.09765625 91.75 C67.07618926 102.50004741 67.04204166 113.25001475 67 124 C63.93731148 122.1769187 60.97499533 120.30316502 58.0625 118.25 C48.54875867 111.9696871 39.13518875 107.74718254 28.1875 104.6875 C27.33583252 104.44515625 26.48416504 104.2028125 25.60668945 103.953125 C17.01081256 101.69008481 9.07574751 101.067735 0 100 C0 67 0 34 0 0 Z " fill="#F5F8F9" transform="translate(177,221)"/>
<path d="M0 0 C4.45435487 3.804952 7.0582988 8.48652639 9.58984375 13.6875 C9.89728516 14.29916016 10.20472656 14.91082031 10.52148438 15.54101562 C15.11590141 24.84043742 15.12090941 34.35412067 12.27734375 44.3125 C7.95484522 56.72659614 1.97883184 63.78602894 -9.69140625 70.0078125 C-19.16376957 74.08777622 -30.50434375 74.21153236 -40.22265625 70.875 C-44.17514158 69.1912058 -47.67810047 67.24931025 -51.09765625 64.625 C-52.58265625 63.573125 -52.58265625 63.573125 -54.09765625 62.5 C-61.13779469 56.45767646 -65.35608503 46.82119231 -66.29394531 37.72021484 C-67.23461823 25.09804085 -65.01058202 14.48818188 -56.81640625 4.43359375 C-40.46543765 -12.77208457 -19.07498707 -12.88751525 0 0 Z " fill="#F7F9F9" transform="translate(276.09765625,135.375)"/>
<path d="M0 0 C-0.20496094 0.6290625 -0.40992188 1.258125 -0.62109375 1.90625 C-2.30071892 7.24247542 -3.65679177 12.39426555 -4 18 C-4.05285156 18.80824219 -4.10570312 19.61648437 -4.16015625 20.44921875 C-4.67200286 35.69334592 -0.03661899 48.98280549 9.70703125 60.609375 C18.29366521 69.56170888 29.90204076 75.90751646 42.4921875 76.23828125 C52.39046665 76.43768699 60.95342093 76.13119277 70.3828125 72.875 C73 72 73 72 76 72 C75.56429687 72.4125 75.12859375 72.825 74.6796875 73.25 C71.50117832 76.33219072 68.65564538 79.36042013 66.125 83 C62.79391074 87.61158862 58.58516634 90.7070169 54 94 C52.66501696 94.9977966 51.33116179 95.99711114 50 97 C46.8373099 95.59607415 44.16151661 93.72879825 41.38598633 91.67553711 C21.61298783 77.07263083 -8.50464259 61.79247515 -34 64 C-36.11339496 65.56996822 -36.89398011 66.48881772 -37.43237305 69.0847168 C-37.45855713 69.86500244 -37.48474121 70.64528809 -37.51171875 71.44921875 C-37.54716797 72.29677734 -37.58261719 73.14433594 -37.61914062 74.01757812 C-37.64169922 74.89865234 -37.66425781 75.77972656 -37.6875 76.6875 C-37.72166016 77.58017578 -37.75582031 78.47285156 -37.79101562 79.39257812 C-37.87345648 81.59492671 -37.94261551 83.79687938 -38 86 C-39.25039062 86.28101563 -40.50078125 86.56203125 -41.7890625 86.8515625 C-46.88641564 88.12983219 -50.08761446 90.21663254 -53.14413452 94.66522217 C-54.39018303 98.06440873 -54.30858385 101.40662702 -54.31884766 104.98144531 C-54.32889328 105.7818222 -54.3389389 106.5821991 -54.34928894 107.40682983 C-54.38013199 110.04725438 -54.39715914 112.68757748 -54.4140625 115.328125 C-54.43277325 117.16087721 -54.45234659 118.99362081 -54.4727478 120.82635498 C-54.52408483 125.64643268 -54.56370217 130.46653831 -54.60089111 135.28674316 C-54.64092088 140.20685749 -54.69201792 145.12685546 -54.7421875 150.046875 C-54.8389654 159.69783494 -54.92336427 169.34886057 -55 179 C-67.29587743 167.62169329 -69.62256752 141.24607262 -70.39450073 125.61480713 C-71.25901941 103.28708558 -71.58349867 70.23651703 -55.78515625 52.515625 C-55.19605469 52.01546875 -54.60695312 51.5153125 -54 51 C-53.2575 51.66 -52.515 52.32 -51.75 53 C-49.02757055 55.39211447 -49.02757055 55.39211447 -45 55 C-45.40794691 50.43441675 -45.40794691 50.43441675 -48.125 46.875 C-49.053125 45.946875 -49.053125 45.946875 -50 45 C-48.8997834 35.07689257 -37.85033794 26.51587298 -31 20 C-27.25979502 21.68152073 -25.43865652 23.69039473 -23 27 C-21.35 26.67 -19.7 26.34 -18 26 C-18.50522222 21.62140745 -21.17827222 19.18348776 -24 16 C-22.53018526 11.35792322 -18.67279156 9.69038646 -14.6875 7.4375 C-14.02298828 7.05142578 -13.35847656 6.66535156 -12.67382812 6.26757812 C-11.3784853 5.51548491 -10.08022268 4.76839347 -8.77880859 4.02685547 C-7.21510408 3.12417345 -5.67739809 2.17676625 -4.14453125 1.22265625 C-2 0 -2 0 0 0 Z " fill="#F9FBFB" transform="translate(201,144)"/>
<path d="M0 0 C0.66 0 1.32 0 2 0 C18.80386815 31.74829187 20.0939248 70.7885464 10.05859375 104.94921875 C4.98690198 121.01309802 4.98690198 121.01309802 1 125 C1 103.55 1 82.1 1 60 C5.455 59.505 5.455 59.505 10 59 C10 57.02 10 55.04 10 53 C7.03 52.67 4.06 52.34 1 52 C0.92523438 51.35933594 0.85046875 50.71867187 0.7734375 50.05859375 C-0.22299598 43.5036245 -2.0341994 39.44773997 -7 35 C-10.18762365 32.87491756 -12.26512223 32.4979837 -16 32 C-17.14179167 26.03731018 -18.09549214 20.09475097 -14.54394531 14.84960938 C-10.87372235 10.65008326 -6.76025615 6.94573512 -2.49047852 3.3659668 C-0.8759417 2.04958456 -0.8759417 2.04958456 0 0 Z " fill="#E8F0F1" transform="translate(353,198)"/>
<path d="M0 0 C3.40136949 0.26819468 5.10271884 1.72704941 7.453125 4.08984375 C8.071875 4.70923828 8.690625 5.32863281 9.328125 5.96679688 C10.27945313 6.94229492 10.27945313 6.94229492 11.25 7.9375 C12.22453125 8.90719727 12.22453125 8.90719727 13.21875 9.89648438 C18 14.73297991 18 14.73297991 18 17 C14.98955556 20.23859272 11.72471684 23.18647168 8.44604492 26.14770508 C2.69855584 31.3454418 -2.56897523 36.72603464 -7.71875 42.51953125 C-15.48336638 50.962222 -22.24668034 55.09931859 -33.4375 57.375 C-41.4280997 59.07521179 -48.93238324 61.15001914 -56.515625 64.1796875 C-59 65 -59 65 -61 64 C-60.59910156 63.62230469 -60.19820313 63.24460938 -59.78515625 62.85546875 C-55.19695113 58.41292094 -51.17982604 53.6489505 -47.2109375 48.6484375 C-44.93907238 45.92701603 -42.53651772 43.47558036 -40 41 C-39.0195043 40.02216417 -38.04039047 39.04294121 -37.0625 38.0625 C-30.9375 31.9375 -30.9375 31.9375 -29.43798828 30.43823242 C-28.10130959 29.10132679 -26.76546426 27.76358806 -25.4296875 26.42578125 C-23.81509573 24.81378529 -22.19532054 23.20696381 -20.5703125 21.60546875 C-16.67359208 17.75232188 -12.83330265 13.89866818 -9.25 9.75 C-3.24456522 2.81195652 -3.24456522 2.81195652 0 0 Z " fill="#FAFCFB" transform="translate(350,153)"/>
<path d="M0 0 C-2.49064888 0.68707555 -4.37886292 1 -7 1 C-7.33 8.92 -7.66 16.84 -8 25 C-8.33 25 -8.66 25 -9 25 C-9.495 14.605 -9.495 14.605 -10 4 C-11.32 4 -12.64 4 -14 4 C-14.00410889 4.77190674 -14.00821777 5.54381348 -14.01245117 6.33911133 C-14.0453119 9.83102421 -14.11594893 13.32117474 -14.1875 16.8125 C-14.19330078 18.02744141 -14.19910156 19.24238281 -14.20507812 20.49414062 C-14.23408203 21.65751953 -14.26308594 22.82089844 -14.29296875 24.01953125 C-14.31653442 25.62985229 -14.31653442 25.62985229 -14.34057617 27.27270508 C-15 30 -15 30 -17.41918945 31.6862793 C-18.27085693 32.11980713 -19.12252441 32.55333496 -20 33 C-22.13842679 35.83269213 -22.13842679 35.83269213 -22.69921875 38.92578125 C-24.42165161 42.99651596 -27.03773568 44.2788243 -30.8125 46.1875 C-32.0483241 46.847381 -33.28400371 47.50753267 -34.51953125 48.16796875 C-36.62670298 49.27713097 -38.74080883 50.37343224 -40.8671875 51.4453125 C-43.51323243 53.37411449 -43.80481965 54.50295964 -44.3125 57.6875 C-44.52326172 58.89986328 -44.52326172 58.89986328 -44.73828125 60.13671875 C-44.82464844 60.75160156 -44.91101563 61.36648437 -45 62 C-50.41207724 57.31676984 -51.86854895 49.72788739 -52.4296875 42.8515625 C-52.97673699 31.06537467 -50.30416759 21.11621075 -42.71875 11.80859375 C-32.1493959 0.68675069 -14.97276295 -6.4747083 0 0 Z " fill="#F4F6F7" transform="translate(262,128)"/>
<path d="M0 0 C0.495 1.98 0.495 1.98 1 4 C2.65 4.33 4.3 4.66 6 5 C6 5.33 6 5.66 6 6 C4.02 6 2.04 6 0 6 C1.98 8.64 3.96 11.28 6 14 C4.5975 14.20625 3.195 14.4125 1.75 14.625 C0.56664062 14.79902344 0.56664062 14.79902344 -0.640625 14.9765625 C-3.32152459 15.00319395 -4.72694089 14.36592084 -7 13 C-8.32 14.65 -9.64 16.3 -11 18 C-9.41332422 21.90285767 -6.86649519 24.33520982 -3.875 27.25 C-2.96492188 28.14203125 -2.05484375 29.0340625 -1.1171875 29.953125 C-0.41851562 30.62859375 0.28015625 31.3040625 1 32 C0.01 32.99 0.01 32.99 -1 34 C-1.66 34 -2.32 34 -3 34 C-3.66 34.99 -4.32 35.98 -5 37 C-5.74765625 36.19433594 -6.4953125 35.38867188 -7.265625 34.55859375 C-8.25974198 33.51758446 -9.25457096 32.47725476 -10.25 31.4375 C-10.98669922 30.63795898 -10.98669922 30.63795898 -11.73828125 29.82226562 C-14.40986753 26.90576898 -14.40986753 26.90576898 -18.05859375 25.875 C-20.74080342 27.42927844 -22.65434403 29.33637061 -24.8125 31.5625 C-25.69292969 32.46742188 -26.57335937 33.37234375 -27.48046875 34.3046875 C-29.58701135 36.55819818 -31.62372394 38.84117634 -33.625 41.1875 C-35.92173186 43.87780328 -38.30299879 46.21116564 -41 48.5 C-45.11262154 51.99453969 -48.52818314 55.88208269 -52 60 C-53.30977056 61.50238388 -54.62219751 63.00245681 -55.9375 64.5 C-56.52402344 65.1703125 -57.11054688 65.840625 -57.71484375 66.53125 C-58.13894531 67.0159375 -58.56304687 67.500625 -59 68 C-60.32 67.34 -61.64 66.68 -63 66 C-63.495 66.495 -63.495 66.495 -64 67 C-65.99180409 68.01622658 -67.99152635 69.01712992 -70 70 C-70.99 69.01 -71.98 68.02 -73 67 C-72.34 67 -71.68 67 -71 67 C-70.72542969 66.40832031 -70.45085937 65.81664062 -70.16796875 65.20703125 C-66.1074974 57.53423421 -58.55406379 51.47581393 -52.41918945 45.45581055 C-48.70749116 41.79478064 -45.26505578 38.06568248 -42 34 C-42.90363281 33.38511719 -43.80726563 32.77023438 -44.73828125 32.13671875 C-45.92980224 31.32047996 -47.12120215 30.50406442 -48.3125 29.6875 C-48.90740234 29.28337891 -49.50230469 28.87925781 -50.11523438 28.46289062 C-52.97609079 26.49705074 -55.67546952 24.5930683 -58 22 C-57.34 22 -56.68 22 -56 22 C-55.67 21.34 -55.34 20.68 -55 20 C-54.34 20.66 -53.68 21.32 -53 22 C-52.01 22 -51.02 22 -50 22 C-50.33 21.01 -50.66 20.02 -51 19 C-50.67 18.34 -50.34 17.68 -50 17 C-47.2578125 16.125 -47.2578125 16.125 -44 16 C-41.3671875 17.6875 -41.3671875 17.6875 -38.875 20 C-35.88293299 23.05072391 -35.88293299 23.05072391 -31.98828125 24.02734375 C-29.25964457 22.61745879 -27.4455573 20.76607159 -25.3125 18.5625 C-24.52488281 17.75941406 -23.73726563 16.95632812 -22.92578125 16.12890625 C-20.96396071 14.15155947 -20.96396071 14.15155947 -20 12 C-19.34 12 -18.68 12 -18 12 C-17.75636719 11.42765625 -17.51273437 10.8553125 -17.26171875 10.265625 C-13.54519915 3.59199848 -7.73587345 -1.31674442 0 0 Z " fill="#10202A" transform="translate(369,128)"/>
<path d="M0 0 C5.05597369 3.57617651 9.57884584 7.86153752 11.5625 13.8125 C12.39786043 23.82313072 11.63723301 29.99449321 5.1640625 37.6484375 C2.38138269 40.78581171 -0.51654023 43.80439225 -3.4375 46.8125 C-4.28828125 47.70324219 -5.1390625 48.59398437 -6.015625 49.51171875 C-12.37377814 56.04882653 -12.37377814 56.04882653 -16.4375 57.8125 C-16.7675 57.1525 -17.0975 56.4925 -17.4375 55.8125 C-18.0975 55.4825 -18.7575 55.1525 -19.4375 54.8125 C-18.7775 53.8225 -18.1175 52.8325 -17.4375 51.8125 C-18.0975 51.8125 -18.7575 51.8125 -19.4375 51.8125 C-19.7675 52.4725 -20.0975 53.1325 -20.4375 53.8125 C-21.0975 53.8125 -21.7575 53.8125 -22.4375 53.8125 C-23.0975 54.4725 -23.7575 55.1325 -24.4375 55.8125 C-27.0625 56.4375 -27.0625 56.4375 -29.4375 56.8125 C-27.28399851 53.91355569 -25.11502906 51.4473825 -22.3125 49.1875 C-19.31896585 46.94691618 -19.31896585 46.94691618 -17.4375 43.8125 C-16.7775 43.8125 -16.1175 43.8125 -15.4375 43.8125 C-15.953125 43.27625 -16.46875 42.74 -17 42.1875 C-18.4375 39.8125 -18.4375 39.8125 -18.125 36.5625 C-17.898125 35.655 -17.67125 34.7475 -17.4375 33.8125 C-16.4475 33.8125 -15.4575 33.8125 -14.4375 33.8125 C-18.3975 29.8525 -22.3575 25.8925 -26.4375 21.8125 C-24.91274303 18.76298605 -23.50864674 16.44850494 -21.4375 13.8125 C-20.9425 14.163125 -20.4475 14.51375 -19.9375 14.875 C-16.21052397 16.27261601 -13.33947152 15.46282859 -9.4375 14.8125 C-10.2625 14.02875 -11.0875 13.245 -11.9375 12.4375 C-14.4375 9.8125 -14.4375 9.8125 -14.4375 7.8125 C-13.4475 7.4825 -12.4575 7.1525 -11.4375 6.8125 C-11.9325 6.35875 -12.4275 5.905 -12.9375 5.4375 C-14.4375 3.8125 -14.4375 3.8125 -14.4375 1.8125 C-16.0875 1.8125 -17.7375 1.8125 -19.4375 1.8125 C-16.62731782 -3.80786435 -4.9107965 -1.69645697 0 0 Z " fill="#0E212E" transform="translate(383.4375,126.1875)"/>
<path d="M0 0 C22.54983413 -1.4118157 45.15007345 7.02820587 62.25 21.5 C63.1575 22.325 64.065 23.15 65 24 C61.99112219 25.58158962 59.36327963 26.43945339 56 27 C56.495 28.485 56.495 28.485 57 30 C55.62476865 29.85636473 54.24982598 29.70996483 52.875 29.5625 C52.10929687 29.48128906 51.34359375 29.40007812 50.5546875 29.31640625 C48.84048381 29.10409662 47.13282995 28.83079609 45.4375 28.5 C41.09654533 27.86858841 36.82644695 27.76815698 32.4453125 27.68359375 C31.54376434 27.66281265 30.64221619 27.64203156 29.71334839 27.62062073 C26.8506386 27.5555542 23.98784181 27.49644086 21.125 27.4375 C19.17707456 27.39427393 17.22915771 27.35065836 15.28125 27.30664062 C10.52092111 27.19991711 5.76050524 27.09853036 1 27 C1 23.37 1 19.74 1 16 C0.34 16 -0.32 16 -1 16 C-0.835 15.030625 -0.67 14.06125 -0.5 13.0625 C0.13396273 8.70512237 0.0896672 4.39369296 0 0 Z " fill="#182732" transform="translate(174,334)"/>
<path d="M0 0 C0.33 23.76 0.66 47.52 1 72 C5.12403473 70.35143175 5.12403473 70.35143175 7 67 C9.625 66.3125 9.625 66.3125 12 66 C13.12383849 69.37151546 13.16190374 70.68027502 12 74 C9.4375 75.8125 9.4375 75.8125 7 77 C7 76.34 7 75.68 7 75 C4.35247996 77.57784846 2.05567935 79.91648098 0 83 C-2.4375 84.3125 -2.4375 84.3125 -5 85 C-5.99 84.34 -6.98 83.68 -8 83 C-8.28640158 80.33769967 -8.37839379 77.90883447 -8.34057617 75.24560547 C-8.34101425 74.44552063 -8.34145233 73.64543579 -8.34190369 72.82110596 C-8.33980923 70.16955382 -8.31644771 67.51862953 -8.29296875 64.8671875 C-8.28737512 63.03158921 -8.28310392 61.19598645 -8.28010559 59.36038208 C-8.26863844 54.52365809 -8.23915527 49.68720337 -8.20599365 44.85058594 C-8.17533298 39.91735477 -8.16160883 34.98408019 -8.14648438 30.05078125 C-8.11428729 20.36706904 -8.06306845 10.68355689 -8 1 C-4.59449725 -1.06762667 -4.18836538 -1.04709135 0 0 Z " fill="#0C1C25" transform="translate(154,240)"/>
<path d="M0 0 C4.034335 -0.07539006 8.06838507 -0.12917203 12.10327148 -0.16479492 C13.46955526 -0.17967888 14.83579308 -0.19999286 16.2019043 -0.22631836 C24.52669964 -0.38246568 32.01949104 0.09329028 40.06518555 2.3137207 C47.15301728 3.97114479 53.93616086 3.6865976 60.82421875 1.48828125 C68.51458846 -0.70896724 76.27263268 -0.32353545 84.1875 -0.1875 C85.72720036 -0.17241603 87.26691511 -0.15873423 88.80664062 -0.14648438 C92.53806515 -0.11379554 96.26893721 -0.06222161 100 0 C82.44461326 13.74273276 53.33584045 14.17107875 32.38964844 11.69091797 C27.45542005 10.88299224 22.73363681 9.5949791 18 8 C17.26587891 7.75378906 16.53175781 7.50757813 15.77539062 7.25390625 C2.81079767 2.81079767 2.81079767 2.81079767 0 0 Z " fill="#CDDFE2" transform="translate(200,373)"/>
<path d="M0 0 C1.67542976 0.28604898 3.34385343 0.61781233 5 1 C5.00410889 1.73637695 5.00821777 2.47275391 5.01245117 3.23144531 C5.04536992 6.57177695 5.11601314 9.91028051 5.1875 13.25 C5.19330078 14.40886719 5.19910156 15.56773437 5.20507812 16.76171875 C5.15523138 23.3411919 5.15523138 23.3411919 8.48828125 28.671875 C9.31714844 29.11015625 10.14601563 29.5484375 11 30 C12.87703256 33.75406513 12.64672327 37.92116117 12 42 C9.1076889 45.8056725 9.1076889 45.8056725 6 47 C1.92183044 47.5238016 -2.25513702 47.87243149 -6 46 C-8.11160692 46.921287 -8.11160692 46.921287 -10.4296875 48.34375 C-11.30753906 48.84777344 -12.18539062 49.35179687 -13.08984375 49.87109375 C-14.94079641 50.95362847 -16.78977363 52.03954824 -18.63671875 53.12890625 C-19.51714844 53.63292969 -20.39757812 54.13695312 -21.3046875 54.65625 C-22.10890137 55.12869141 -22.91311523 55.60113281 -23.74169922 56.08789062 C-26.33372341 57.13478818 -27.42832333 56.97422029 -30 56 C-30.5 53.3125 -30.5 53.3125 -30 50 C-26.8449219 47.06251349 -22.66354058 45.34335329 -18.8671875 43.37890625 C-12.33056991 40.14764288 -12.33056991 40.14764288 -8.5 34.3125 C-8.335 33.219375 -8.17 32.12625 -8 31 C-6.0625 28.5625 -6.0625 28.5625 -4 27 C-3.01 27 -2.02 27 -1 27 C-1.00785522 25.82642944 -1.00785522 25.82642944 -1.01586914 24.62915039 C-1.03657106 21.10694167 -1.04963838 17.5847457 -1.0625 14.0625 C-1.07087891 12.83080078 -1.07925781 11.59910156 -1.08789062 10.33007812 C-1.09272461 8.5753418 -1.09272461 8.5753418 -1.09765625 6.78515625 C-1.10551147 5.15912476 -1.10551147 5.15912476 -1.11352539 3.50024414 C-1 1 -1 1 0 0 Z " fill="#0F202A" transform="translate(248,131)"/>
<path d="M0 0 C0.33 0 0.66 0 1 0 C1.75168451 22.85410017 0.59232763 47.13589833 -10 68 C-10.99 68.99 -11.98 69.98 -13 71 C-13 49.55 -13 28.1 -13 6 C-8.545 5.505 -8.545 5.505 -4 5 C-1.4796037 2.60422071 -1.4796037 2.60422071 0 0 Z " fill="#FAFCFC" transform="translate(367,252)"/>
<path d="M0 0 C0.47308594 0.38671875 0.94617188 0.7734375 1.43359375 1.171875 C11.631877 9.20327156 22.22877871 12.39391288 35.125 12.375 C36.0413623 12.37628906 36.95772461 12.37757813 37.90185547 12.37890625 C44.88219995 12.27123398 50.76447687 11.16046842 57.3828125 8.875 C60 8 60 8 63 8 C62.56429687 8.4125 62.12859375 8.825 61.6796875 9.25 C58.50117832 12.33219072 55.65564538 15.36042013 53.125 19 C49.79391074 23.61158862 45.58516634 26.7070169 41 30 C39.66501696 30.9977966 38.33116179 31.99711114 37 33 C33.17624143 31.30262425 29.96828179 28.84806161 26.625 26.375 C18.10075035 20.18294166 9.16438737 14.06156246 -1 11 C-0.01 10.34 0.98 9.68 2 9 C1.484375 8.2575 0.96875 7.515 0.4375 6.75 C-1 4 -1 4 -0.58984375 1.828125 C-0.39519531 1.22484375 -0.20054687 0.6215625 0 0 Z " fill="#DCECEE" transform="translate(214,208)"/>
<path d="M0 0 C0.928125 0.103125 1.85625 0.20625 2.8125 0.3125 C2.99855538 8.63178085 3.14035093 16.95018074 3.22699738 25.27103329 C3.26860242 29.13562372 3.32494904 32.99878238 3.41601562 36.86254883 C3.50348508 40.59743181 3.55088437 44.33094558 3.57151794 48.06677437 C3.58620456 49.48580022 3.6148859 50.90475813 3.65834045 52.3231945 C3.87645262 59.74363364 3.85304673 64.99369964 -1.17382812 70.75610352 C-4.8562315 74.3125 -4.8562315 74.3125 -6.1875 74.3125 C-6.25705955 65.40241035 -6.31034139 56.49241441 -6.34293652 47.58211231 C-6.35858182 43.44453644 -6.37979917 39.30714657 -6.41381836 35.16967773 C-6.44645259 31.17558149 -6.46436156 27.18166398 -6.47213173 23.18744469 C-6.47766797 21.66482416 -6.488479 20.14221325 -6.50469017 18.61966896 C-6.52651914 16.4842693 -6.52946474 14.3496049 -6.52807617 12.21411133 C-6.53473801 10.9994368 -6.54139984 9.78476227 -6.54826355 8.53327942 C-5.99655515 3.6078066 -5.29702774 0.51931645 0 0 Z " fill="#F8FCFC" transform="translate(160.1875,238.6875)"/>
<path d="M0 0 C10.94985939 4.06006022 20.79381899 10.93566519 30 18 C24.96654872 24.08831649 19.48470931 29.63086654 13.875 35.1875 C12.53501953 36.52071289 12.53501953 36.52071289 11.16796875 37.88085938 C9.51141032 39.5287512 7.85382059 41.17560749 6.19482422 42.82104492 C4.12502105 44.87588288 2.06101169 46.93634824 0 49 C0.47690204 47.37433394 0.95659666 45.74948689 1.4375 44.125 C1.83775391 42.76761719 1.83775391 42.76761719 2.24609375 41.3828125 C3 39 3 39 4 37 C4.93716016 24.65533863 5.67219186 11.31906144 0 0 Z " fill="#F6F9F9" transform="translate(298,144)"/>
<path d="M0 0 C6 2 6 2 8 5 C8.24050903 7.86637878 8.24050903 7.86637878 8.22705078 11.39916992 C8.22734283 12.04334366 8.22763489 12.6875174 8.22793579 13.35121155 C8.22654384 15.47776823 8.21098938 17.60397337 8.1953125 19.73046875 C8.19158188 21.20591541 8.18873514 22.68136455 8.18673706 24.15681458 C8.17910442 28.03830822 8.15945917 31.91965196 8.1373291 35.80108643 C8.11686269 39.76255261 8.10773365 43.72404305 8.09765625 47.68554688 C8.07621286 55.45709956 8.04208145 63.22852877 8 71 C5.36 71 2.72 71 0 71 C0 47.57 0 24.14 0 0 Z " fill="#FAFDFC" transform="translate(337,238)"/>
<path d="M0 0 C1.32 0.33 2.64 0.66 4 1 C4 3.97 4 6.94 4 10 C6.97 10 9.94 10 13 10 C13 13 13 13 12 16 C9.36 16 6.72 16 4 16 C4 38.77 4 61.54 4 85 C3.67 85 3.34 85 3 85 C2.34513908 78.63849395 1.87931529 72.39628979 2 66 C1.01 66 0.02 66 -1 66 C-0.67 66.99 -0.34 67.98 0 69 C-1.32 68.67 -2.64 68.34 -4 68 C-3.9388604 59.68973708 -3.86180716 51.37984095 -3.76428509 43.06993294 C-3.71950747 39.21151939 -3.68026816 35.35321323 -3.65356445 31.49462891 C-3.62760447 27.77266501 -3.58725531 24.05111276 -3.53681374 20.32940292 C-3.52009524 18.90765366 -3.50861206 17.48583311 -3.50238609 16.06399918 C-3.49279989 14.07656914 -3.46307549 12.08926678 -3.43237305 10.10205078 C-3.42126999 8.96953888 -3.41016693 7.83702698 -3.39872742 6.67019653 C-3.26714737 5.78903168 -3.13556732 4.90786682 -3 4 C-2.01 3.34 -1.02 2.68 0 2 C0 1.34 0 0.68 0 0 Z " fill="#0C1B26" transform="translate(349,241)"/>
<path d="M0 0 C0.66 0 1.32 0 2 0 C2.17439217 4.26820052 2.30067865 8.53446112 2.38452148 12.80517578 C2.41950365 14.25443684 2.46710991 15.70345481 2.52807617 17.15185547 C3.08482143 30.72895408 3.08482143 30.72895408 -1.52734375 36 C-3.48413086 37.8125 -3.48413086 37.8125 -5 39 C-10.66129431 34.30233025 -15.85228904 29.25276628 -21 24 C-18.13835631 19.38843032 -14.97112429 15.74759483 -11.0625 12 C-7.9464856 8.9898125 -4.95606041 6.01171301 -2.24609375 2.625 C-1.50488281 1.75875 -0.76367188 0.8925 0 0 Z " fill="#F5F8F9" transform="translate(161,320)"/>
<path d="M0 0 C21.63689411 -0.77172855 37.25400929 0.86154319 56 12 C52.79931429 13.0328888 50.81654821 12.89455432 47.57421875 12.1015625 C38.43734909 10.29333451 29.09256098 10.52813895 19.8125 10.375 C17.88735354 10.33674669 15.96222286 10.2976909 14.03710938 10.2578125 C9.3582035 10.16261798 4.67921785 10.07829995 0 10 C0 6.7 0 3.4 0 0 Z " fill="#DAE9ED" transform="translate(175,351)"/>
<path d="M0 0 C1.11310547 0.00451172 2.22621094 0.00902344 3.37304688 0.01367188 C6.10292101 0.02538807 8.83268174 0.04179301 11.5625 0.0625 C11.5625 3.3625 11.5625 6.6625 11.5625 10.0625 C10.4293335 10.08231934 9.29616699 10.10213867 8.12866211 10.12255859 C3.85112392 10.19967881 -0.42612009 10.28821406 -4.70336914 10.37988281 C-6.54087439 10.41773975 -8.37844292 10.45266054 -10.21606445 10.484375 C-21.43666359 10.68031452 -32.35012697 11.25236006 -43.4375 13.0625 C-32.27027881 1.47855837 -15.18710997 -0.11717058 0 0 Z " fill="#D8E8EB" transform="translate(312.4375,350.9375)"/>
<path d="M0 0 C19.88339815 -1.24487362 42.46805483 5.27565354 58 18 C59.82421875 20.2421875 59.82421875 20.2421875 61 22 C58.29857395 20.94749634 55.64876916 19.83930615 53.01171875 18.6328125 C35.40429283 10.64636549 19.2061292 9.25502644 0 9 C0 6.03 0 3.06 0 0 Z " fill="#F3F6F7" transform="translate(174,334)"/>
<path d="M0 0 C0 2.97 0 5.94 0 9 C-0.61818604 9.01458252 -1.23637207 9.02916504 -1.87329102 9.04418945 C-21.3107397 9.55470435 -39.74225559 10.99500678 -56.8125 21.25390625 C-57.864375 21.83011719 -58.91625 22.40632813 -60 23 C-60.66 22.67 -61.32 22.34 -62 22 C-45.4908211 7.32517431 -21.90565983 -0.76267288 0 0 Z " fill="#F2F6F6" transform="translate(325,334)"/>
<path d="M0 0 C1.125 3.3125 1.125 3.3125 2 7 C1.01 8.485 1.01 8.485 0 10 C1.98 12.97 1.98 12.97 4 16 C2.1875 16.6875 2.1875 16.6875 0 17 C-1.63671875 15.51953125 -1.63671875 15.51953125 -3 14 C-6.59058175 19.79424351 -7.43484866 23.30403958 -6 30 C-9.81756824 31.37432457 -13.07255329 30.67975039 -17 30 C-17 29.01 -17 28.02 -17 27 C-17.66 26.34 -18.32 25.68 -19 25 C-17.7560762 22.2887292 -16.5051234 19.58108166 -15.25 16.875 C-14.90195313 16.11445313 -14.55390625 15.35390625 -14.1953125 14.5703125 C-8.94824219 3.29882812 -8.94824219 3.29882812 -4.9375 0.625 C-3 0 -3 0 0 0 Z " fill="#0C1D28" transform="translate(138,336)"/>
<path d="M0 0 C16.08900758 -0.80445038 31.66023699 5.94215569 45.12109375 14.2890625 C46.05115234 15.13597656 46.05115234 15.13597656 47 16 C47 17.32 47 18.64 47 20 C44 21 44 21 42.23046875 20.21484375 C41.55628906 19.79332031 40.88210937 19.37179687 40.1875 18.9375 C30.07357188 13.06489657 19.82738656 9.41471037 8.49609375 6.859375 C5.50184083 6.12335752 2.81787251 5.23315726 0 4 C0 2.68 0 1.36 0 0 Z " fill="#213E4F" transform="translate(186,245)"/>
<path d="M0 0 C5.50187445 -0.23135346 10.14804123 0.51136378 15.4375 2 C16.21303223 2.21640137 16.98856445 2.43280273 17.78759766 2.65576172 C27.3260471 5.47873975 37.21842775 9.70435612 45 16 C44.505 18.475 44.505 18.475 44 21 C39.8226715 20.07976532 36.32147972 18.16558166 32.5625 16.1875 C23.0638266 11.32021441 13.48264472 8.18543238 2.92578125 6.4921875 C1 6 1 6 -1 4 C-0.625 1.875 -0.625 1.875 0 0 Z " fill="#223F51" transform="translate(187,260)"/>
<path d="M0 0 C0.495 2.475 0.495 2.475 1 5 C-2.40683857 7.01426222 -5.40248477 7.40210625 -9.3125 7.8125 C-20.43305871 9.30527011 -30.67502136 12.457787 -39.94921875 18.9609375 C-42 20 -42 20 -44.26953125 19.6640625 C-44.84058594 19.44492187 -45.41164063 19.22578125 -46 19 C-45.953125 16.75390625 -45.953125 16.75390625 -45 14 C-42.55592131 12.36757431 -40.39132995 11.15192542 -37.75 9.9375 C-37.02852783 9.59315918 -36.30705566 9.24881836 -35.5637207 8.89404297 C-24.54882903 3.77066821 -12.26799722 -0.26288565 0 0 Z " fill="#14394F" transform="translate(313,292)"/>
<path d="M0 0 C0.79921875 0.00902344 1.5984375 0.01804688 2.421875 0.02734375 C3.02515625 0.03894531 3.6284375 0.05054688 4.25 0.0625 C4.745 2.0425 4.745 2.0425 5.25 4.0625 C1.30175728 5.44469486 -2.65625319 6.5504474 -6.71435547 7.55957031 C-17.08522512 10.19727448 -26.34123574 14.31390459 -35.83740234 19.20214844 C-37.78984204 20.08042231 -39.66178159 20.60826167 -41.75 21.0625 C-42.08 19.4125 -42.41 17.7625 -42.75 16.0625 C-31.68910758 9.90361437 -20.97770384 4.48116882 -8.75 1.0625 C-8.05261719 0.85882813 -7.35523438 0.65515625 -6.63671875 0.4453125 C-4.3851953 -0.01151834 -2.29533754 -0.03375496 0 0 Z " fill="#193A4D" transform="translate(308.75,244.9375)"/>
<path d="M0 0 C0.625 1.875 0.625 1.875 1 4 C-1.407239 6.407239 -2.37868918 6.36242259 -5.6875 6.8125 C-16.93173641 8.73546993 -26.86744441 12.34977474 -36.43286133 18.49658203 C-40.52170446 21.05461776 -40.52170446 21.05461776 -43.39453125 20.7265625 C-44.18923828 20.36691406 -44.18923828 20.36691406 -45 20 C-45 18.68 -45 17.36 -45 16 C-41.99710957 13.50185073 -38.43780353 11.83793928 -35 10 C-34.25492187 9.56429688 -33.50984375 9.12859375 -32.7421875 8.6796875 C-27.33511393 5.68413106 -21.73048297 3.87141554 -15.8125 2.1875 C-15.05195313 1.96827881 -14.29140625 1.74905762 -13.5078125 1.52319336 C-8.86025751 0.26650828 -4.81204753 -0.22307505 0 0 Z " fill="#1C3D4F" transform="translate(313,260)"/>
<path d="M0 0 C11.82533203 0.16893331 23.72279966 4.29054804 34.25 9.4375 C34.93078613 9.76556641 35.61157227 10.09363281 36.31298828 10.43164062 C40.8919653 12.81199599 40.8919653 12.81199599 42.0546875 15.62109375 C42.07789063 16.19988281 42.10109375 16.77867187 42.125 17.375 C40.46484375 18.5703125 40.46484375 18.5703125 38.125 19.375 C35.56640625 18.1796875 35.56640625 18.1796875 32.6875 16.25 C21.40486419 9.30055041 9.0083509 7.41164948 -3.875 5.375 C-4.4375 3.4375 -4.4375 3.4375 -4.875 1.375 C-3.875 0.375 -3.875 0.375 0 0 Z " fill="#1C3C4E" transform="translate(190.875,292.625)"/>
<path d="M0 0 C3.04332765 1.3584202 5.12309151 2.88463024 7.453125 5.2578125 C8.071875 5.88300781 8.690625 6.50820312 9.328125 7.15234375 C9.96234375 7.80332031 10.5965625 8.45429688 11.25 9.125 C11.8996875 9.78371094 12.549375 10.44242188 13.21875 11.12109375 C14.81711727 12.74296643 16.41061897 14.3693281 18 16 C16.34807388 20.20490286 14.98771331 20.80982935 11 24 C5.72 18.72 0.44 13.44 -5 8 C-3.47524303 4.95048605 -2.07114674 2.63600494 0 0 Z " fill="#F5F8F9" transform="translate(362,140)"/>
<path d="M0 0 C11.39584772 -0.86917483 27.89759145 1.38369897 37 9 C37.75390625 11.66015625 37.75390625 11.66015625 38 14 C34.0585831 14.40424789 31.4321622 13.88324937 27.9375 12.1875 C20.68642474 8.73926522 12.77711587 7.18137717 4.8125 6.4375 C1 6 1 6 -1 4 C-0.625 1.875 -0.625 1.875 0 0 Z " fill="#203E51" transform="translate(187,308)"/>
<path d="M0 0 C0.99 0.33 1.98 0.66 3 1 C3 1.66 3 2.32 3 3 C3.886875 3.04125 4.77375 3.0825 5.6875 3.125 C10.21629527 4.32128554 11.29643492 6.26271887 14 10 C10.04 11.98 10.04 11.98 6 14 C6.2784375 15.1446875 6.2784375 15.1446875 6.5625 16.3125 C7 19 7 19 6 22 C-1.33834586 22.48120301 -1.33834586 22.48120301 -4.0625 20.5 C-6.66564939 13.55826829 -2.79438333 6.3426003 0 0 Z " fill="#0D1F2D" transform="translate(119,362)"/>
<path d="M0 0 C2.64 0 5.28 0 8 0 C8.20505665 3.83253129 8.32820828 7.66363766 8.4375 11.5 C8.49615234 12.57765625 8.55480469 13.6553125 8.61523438 14.765625 C8.74069384 20.6442969 8.4640425 24.22683445 4.53515625 28.78125 C1.2937564 32 1.2937564 32 0 32 C0 21.44 0 10.88 0 0 Z " fill="#F5FAFA" transform="translate(337,316)"/>
<path d="M0 0 C-0.875 4.875 -0.875 4.875 -2 6 C-3.68785318 6.19532389 -5.37656014 6.38503746 -7.06811523 6.54516602 C-20.99975568 7.78569841 -20.99975568 7.78569841 -33 14 C-34.99958364 14.04080783 -37.00045254 14.04254356 -39 14 C-38.86328125 11.6953125 -38.86328125 11.6953125 -38 9 C-26.7015687 1.39764467 -13.28200418 -0.57840986 0 0 Z " fill="#18384C" transform="translate(314,308)"/>
<path d="M0 0 C12.47252347 0.21777422 25.09593384 3.0186793 35.4375 10.25 C36.31640625 12.47265625 36.31640625 12.47265625 36.4375 14.25 C32.26921056 15.45895228 30.3601336 15.07962314 26.5625 13.0625 C17.12037263 8.48179226 6.89637811 5.98395636 -3.5625 5.25 C-4.125 3.3125 -4.125 3.3125 -4.5625 1.25 C-3.5625 0.25 -3.5625 0.25 0 0 Z " fill="#1C3B4D" transform="translate(190.5625,277.75)"/>
<path d="M0 0 C0.495 1.98 0.495 1.98 1 4 C-3.18923427 5.33293818 -7.20665043 6.20023199 -11.5625 6.8125 C-19.5773768 8.07747424 -28.20166192 10.46777461 -35 15 C-37.6875 14.625 -37.6875 14.625 -40 14 C-39.66426948 11.26703575 -39.27527146 10.22987179 -37.12890625 8.4375 C-25.91482741 2.15625036 -12.83842888 -0.82828573 0 0 Z " fill="#1B3C50" transform="translate(313,278)"/>
<path d="M0 0 C0.47308594 0.38671875 0.94617188 0.7734375 1.43359375 1.171875 C12.99726036 10.27854422 24.57405467 12.23007595 39 13 C39 13.33 39 13.66 39 14 C31.08 14.495 31.08 14.495 23 15 C22.67 16.98 22.34 18.96 22 21 C17.67947335 20.42128726 14.74944513 18.8448946 11.0625 16.5625 C7.10551782 14.11682972 3.466486 12.32463594 -1 11 C-0.01 10.34 0.98 9.68 2 9 C1.484375 8.2575 0.96875 7.515 0.4375 6.75 C-1 4 -1 4 -0.58984375 1.828125 C-0.39519531 1.22484375 -0.20054687 0.6215625 0 0 Z " fill="#D7E6EA" transform="translate(214,208)"/>
<path d="M0 0 C5.29012124 4.40843437 10.18808428 9.07559794 15 14 C8.21179876 19.14771927 8.21179876 19.14771927 5.109375 18.76953125 C2.47315094 17.80779766 1.16992124 16.46818593 -0.75 14.4375 C-1.36359375 13.79683594 -1.9771875 13.15617187 -2.609375 12.49609375 C-3.06828125 12.00238281 -3.5271875 11.50867188 -4 11 C-3.52269162 9.5410574 -3.04308958 8.08286504 -2.5625 6.625 C-2.29566406 5.81289063 -2.02882812 5.00078125 -1.75390625 4.1640625 C-1 2 -1 2 0 0 Z " fill="#EFF3F4" transform="translate(134,349)"/>
<path d="M0 0 C4.78586831 0.64522257 6.57803463 3.09669089 9.64453125 6.63671875 C10.18142578 7.21486328 10.71832031 7.79300781 11.27148438 8.38867188 C14.12003729 11.56770003 16.16105152 13.99560376 16.33203125 18.44921875 C15.33203125 19.44921875 15.33203125 19.44921875 13.19140625 19.8984375 C8.76633199 19.20324141 6.60390886 16.40922498 3.58203125 13.26171875 C2.69837891 12.39450195 2.69837891 12.39450195 1.796875 11.50976562 C-3.56696187 6.0534488 -3.56696187 6.0534488 -3.66796875 1.44921875 C-2.66796875 0.44921875 -2.66796875 0.44921875 0 0 Z " fill="#15262F" transform="translate(163.66796875,178.55078125)"/>
<path d="M0 0 C1.375 2.8125 1.375 2.8125 2 5 C0.68 4.67 -0.64 4.34 -2 4 C-1.67 5.32 -1.34 6.64 -1 8 C-1.99 8 -2.98 8 -4 8 C-4.33 29.12 -4.66 50.24 -5 72 C-5.33 72 -5.66 72 -6 72 C-6.01213028 70.76971321 -6.01213028 70.76971321 -6.02450562 69.51457214 C-6.10240909 61.78938922 -6.18968669 54.06439634 -6.28752708 46.33944225 C-6.3374977 42.36785063 -6.38382755 38.39628571 -6.421875 34.42456055 C-6.45871833 30.59245064 -6.50507543 26.76056367 -6.55806351 22.92864418 C-6.57661258 21.46584288 -6.59171867 20.00299379 -6.60334396 18.54012108 C-6.62019799 16.49290455 -6.64922977 14.44619917 -6.68115234 12.39916992 C-6.69447601 11.23334885 -6.70779968 10.06752777 -6.7215271 8.86637878 C-6.79186274 5.80125743 -6.79186274 5.80125743 -9 3 C-9.99 2.67 -10.98 2.34 -12 2 C-10.56617647 -3.61580882 -10.56617647 -3.61580882 -8.25 -5.1875 C-4.60778502 -4.88398209 -2.34581691 -2.6148959 0 0 Z " fill="#37444C" transform="translate(351,237)"/>
<path d="M0 0 C2 1.375 2 1.375 4 3 C4 5 4 5 1.88671875 7.2734375 C-0.56990837 9.59377001 -3.04645993 11.88298371 -5.55395508 14.14770508 C-11.29881726 19.34306617 -16.56914656 24.71559856 -21.70703125 30.515625 C-24.43004934 33.46594784 -27.33217435 36.08372809 -30.40625 38.66015625 C-32.11545465 40.05796872 -32.11545465 40.05796872 -34 42 C-34.99 42 -35.98 42 -37 42 C-36.34 40.68 -35.68 39.36 -35 38 C-34.34 38 -33.68 38 -33 38 C-33 37.34 -33 36.68 -33 36 C-29.9556255 32.52071486 -27.42761914 30.39153744 -23 29 C-23 28.34 -23 27.68 -23 27 C-22.34 27 -21.68 27 -21 27 C-20.9071875 26.13375 -20.9071875 26.13375 -20.8125 25.25 C-19.67561467 22.10170216 -17.63092771 21.01908406 -15 19 C-14.360625 18.195625 -13.72125 17.39125 -13.0625 16.5625 C-11.37626841 14.46748499 -9.9348442 13.0358429 -7.875 11.375 C-4.88146585 9.13441618 -4.88146585 9.13441618 -3 6 C-2.34 6 -1.68 6 -1 6 C-0.67 4.02 -0.34 2.04 0 0 Z " fill="#E1EBEE" transform="translate(364,165)"/>
<path d="M0 0 C5.77494139 -0.34649648 9.99303982 -0.29726646 15 3 C17.28062828 6.42094242 17.21925007 7.68187222 17.125 11.6875 C17.10695313 12.68136719 17.08890625 13.67523438 17.0703125 14.69921875 C17.04710937 15.45847656 17.02390625 16.21773437 17 17 C12.81986372 13.45597141 8.67561286 9.8716456 4.5625 6.25 C3.69753906 5.49203125 2.83257812 4.7340625 1.94140625 3.953125 C0 2 0 2 0 0 Z " fill="#EBF0F2" transform="translate(369,134)"/>
<path d="M0 0 C6.14293226 0.79155751 11.44939316 2.68311749 17.08984375 5.21484375 C16.75984375 5.87484375 16.42984375 6.53484375 16.08984375 7.21484375 C15.42984375 6.88484375 14.76984375 6.55484375 14.08984375 6.21484375 C14.08984375 6.87484375 14.08984375 7.53484375 14.08984375 8.21484375 C14.74984375 8.54484375 15.40984375 8.87484375 16.08984375 9.21484375 C15.42984375 9.87484375 14.76984375 10.53484375 14.08984375 11.21484375 C8.94765045 10.80346829 4.06268061 9.52348503 -0.91015625 8.21484375 C-1.01328125 7.57546875 -1.11640625 6.93609375 -1.22265625 6.27734375 C-1.44953125 5.59671875 -1.67640625 4.91609375 -1.91015625 4.21484375 C-2.90015625 3.88484375 -3.89015625 3.55484375 -4.91015625 3.21484375 C-2.47729543 0.27863241 -2.47729543 0.27863241 0 0 Z " fill="#15232E" transform="translate(202.91015625,343.78515625)"/>
<path d="M0 0 C1.65 0.33 3.3 0.66 5 1 C5 7.93 5 14.86 5 22 C3 23 1 24 -1 25 C-1.02886984 21.02084841 -1.04675406 17.04172347 -1.0625 13.0625 C-1.07087891 11.92619141 -1.07925781 10.78988281 -1.08789062 9.61914062 C-1.09111328 8.53955078 -1.09433594 7.45996094 -1.09765625 6.34765625 C-1.10289307 5.34742432 -1.10812988 4.34719238 -1.11352539 3.31665039 C-1 1 -1 1 0 0 Z " fill="#0A1C26" transform="translate(248,131)"/>
<path d="M0 0 C0.66 1.32 1.32 2.64 2 4 C3.98 3.67 5.96 3.34 8 3 C6.57466888 7.27599336 3.47056527 8.26822586 -0.3125 10.25 C-0.98990234 10.62640625 -1.66730469 11.0028125 -2.36523438 11.390625 C-7.45708023 14.09831234 -7.45708023 14.09831234 -10.22729492 13.59667969 C-10.8122876 13.39977539 -11.39728027 13.20287109 -12 13 C-12.5 10.3125 -12.5 10.3125 -12 7 C-8.49266452 3.91855526 -4.15534419 2.05895433 0 0 Z " fill="#11212C" transform="translate(230,174)"/>
<path d="M0 0 C0.625 1.875 0.625 1.875 1 4 C-1.44142984 6.44142984 -2.69731879 6.46990113 -6.0625 7 C-11.09121046 7.83590702 -16.03186464 8.85977221 -21 10 C-21.33 8.02 -21.66 6.04 -22 4 C-19.64856824 3.32210976 -17.29461376 2.65759253 -14.9375 2 C-13.95233398 1.71382813 -13.95233398 1.71382813 -12.94726562 1.421875 C-8.5325982 0.20403571 -4.62058323 -0.19227394 0 0 Z " fill="#204156" transform="translate(313,260)"/>
<path d="M0 0 C2.9896824 2.39383661 5.50731887 5.0994256 8 8 C7.38125 8.433125 6.7625 8.86625 6.125 9.3125 C3.7802755 10.99740483 3.7802755 10.99740483 2 14 C-1.96 10.04 -5.92 6.08 -10 2 C-6.13675258 -0.57549828 -4.58695736 -0.75196022 0 0 Z " fill="#1F2E36" transform="translate(377,142)"/>
<path d="M0 0 C0.33 0 0.66 0 1 0 C1 2.31 1 4.62 1 7 C1.95712891 6.98259766 1.95712891 6.98259766 2.93359375 6.96484375 C4.17302734 6.95130859 4.17302734 6.95130859 5.4375 6.9375 C6.26121094 6.92589844 7.08492188 6.91429687 7.93359375 6.90234375 C10 7 10 7 11 8 C11.125 11 11.125 11 11 14 C10 15 10 15 7.93359375 15.09765625 C7.10988281 15.08605469 6.28617187 15.07445312 5.4375 15.0625 C4.61121094 15.05347656 3.78492188 15.04445313 2.93359375 15.03515625 C2.29550781 15.02355469 1.65742188 15.01195312 1 15 C1.0169693 15.8224118 1.0339386 16.64482361 1.05142212 17.49215698 C1.20932761 25.23206555 1.35753553 32.97206955 1.49477577 40.71236992 C1.56568127 44.6920006 1.64037211 48.67148602 1.72363281 52.65087891 C1.80380404 56.4892049 1.87413776 60.32759525 1.93757248 64.16623306 C1.96355207 65.63275958 1.99311238 67.09922706 2.02626419 68.56560898 C2.07199604 70.61515164 2.10513962 72.66453233 2.13525391 74.71435547 C2.15746002 75.88239716 2.17966614 77.05043884 2.20254517 78.25387573 C2 81 2 81 0 83 C0 60.23 0 37.46 0 14 C2.64 14 5.28 14 8 14 C7.67 12.35 7.34 10.7 7 9 C4.69 8.67 2.38 8.34 0 8 C0 5.36 0 2.72 0 0 Z " fill="#8F989A" transform="translate(353,243)"/>
<path d="M0 0 C0.66 0.33 1.32 0.66 2 1 C0.25 5.875 0.25 5.875 -2 7 C-3.11249286 11.60549717 -3.11249286 11.60549717 -2 16 C-4.28855702 16.86343731 -6.5801928 17.7159811 -8.875 18.5625 C-9.52597656 18.80935547 -10.17695313 19.05621094 -10.84765625 19.31054688 C-12.54497665 19.93173115 -14.27156776 20.47152252 -16 21 C-16.66 20.67 -17.32 20.34 -18 20 C-17.59910156 19.62230469 -17.19820313 19.24460938 -16.78515625 18.85546875 C-12.10128302 14.32028991 -7.99333911 9.44091369 -3.91796875 4.35546875 C-2 2 -2 2 0 0 Z " fill="#F2F8F8" transform="translate(307,197)"/>
<path d="M0 0 C7.26 0 14.52 0 22 0 C18.21544639 2.83841521 16.3769737 3.64777196 11.9375 4.6875 C10.37322266 5.06455078 10.37322266 5.06455078 8.77734375 5.44921875 C6 6 6 6 3 6 C3 6.66 3 7.32 3 8 C2.01 8.33 1.02 8.66 0 9 C0 6.03 0 3.06 0 0 Z " fill="#F7FDFE" transform="translate(175,351)"/>
<path d="M0 0 C1.75570313 0.02707031 1.75570313 0.02707031 3.546875 0.0546875 C4.88492187 0.08949219 4.88492187 0.08949219 6.25 0.125 C5.375 5 5.375 5 4.25 6.125 C1.90012738 6.36027773 -0.45556039 6.53886417 -2.8125 6.6875 C-4.10285156 6.77128906 -5.39320313 6.85507812 -6.72265625 6.94140625 C-7.72167969 7.00199219 -8.72070312 7.06257813 -9.75 7.125 C-9.42 5.805 -9.09 4.485 -8.75 3.125 C-9.41 2.795 -10.07 2.465 -10.75 2.125 C-7.15537669 -0.13498595 -4.18404325 -0.08368087 0 0 Z " fill="#234153" transform="translate(307.75,307.875)"/>
<path d="M0 0 C4.59740643 0.03683819 8.53367656 0.90638773 12.9375 2.1875 C13.2675 3.8375 13.5975 5.4875 13.9375 7.1875 C7.9975 6.5275 2.0575 5.8675 -4.0625 5.1875 C-4.3925 3.8675 -4.7225 2.5475 -5.0625 1.1875 C-3.52940622 -0.34559378 -2.13068186 0.01827343 0 0 Z " fill="#1C394C" transform="translate(191.0625,277.8125)"/>
<path d="M0 0 C6.6 0 13.2 0 20 0 C20 2.64 20 5.28 20 8 C19.47792969 7.81824219 18.95585937 7.63648438 18.41796875 7.44921875 C12.34250187 5.37440957 6.20694217 3.63584831 0 2 C0 1.34 0 0.68 0 0 Z " fill="#F4FCFD" transform="translate(303,351)"/>
<path d="M0 0 C1.47919922 0.14018555 1.47919922 0.14018555 2.98828125 0.28320312 C4.53708984 0.43885742 4.53708984 0.43885742 6.1171875 0.59765625 C7.67759766 0.74750977 7.67759766 0.74750977 9.26953125 0.90039062 C11.84430413 1.14841921 14.41842418 1.40189481 16.9921875 1.66015625 C16.9921875 1.99015625 16.9921875 2.32015625 16.9921875 2.66015625 C9.0721875 3.15515625 9.0721875 3.15515625 0.9921875 3.66015625 C0.6621875 5.64015625 0.3321875 7.62015625 -0.0078125 9.66015625 C-4.32173476 9.18083155 -6.17350797 7.91435775 -9.0078125 4.66015625 C-6.78888712 -0.25317852 -5.242725 -0.51222026 0 0 Z " fill="#D0E0E3" transform="translate(236.0078125,219.33984375)"/>
<path d="M0 0 C1.41655793 -0.0272415 2.83327045 -0.04650467 4.25 -0.0625 C5.43335938 -0.07990234 5.43335938 -0.07990234 6.640625 -0.09765625 C8.90691002 -0.00385306 10.8288895 0.36758937 13 1 C13 1.66 13 2.32 13 3 C15.31 3.33 17.62 3.66 20 4 C20 4.33 20 4.66 20 5 C18.35 5 16.7 5 15 5 C15 5.66 15 6.32 15 7 C4.44191344 6.22095672 4.44191344 6.22095672 0 4 C0 2.68 0 1.36 0 0 Z " fill="#1B394F" transform="translate(186,245)"/>
<path d="M0 0 C1.65 0.33 3.3 0.66 5 1 C5 12.22 5 23.44 5 35 C4.67 35 4.34 35 4 35 C4 25.1 4 15.2 4 5 C2.35 6.32 0.7 7.64 -1 9 C-1.99 8.67 -2.98 8.34 -4 8 C-3.40072174 4.64404172 -2.15377564 2.62198774 0 0 Z M-6 7 C-5.34 7.66 -4.68 8.32 -4 9 C-4.33 9.66 -4.66 10.32 -5 11 C-5.99 10.67 -6.98 10.34 -8 10 C-7.34 9.01 -6.68 8.02 -6 7 Z " fill="#26353E" transform="translate(159,315)"/>
<path d="M0 0 C0.33 0 0.66 0 1 0 C1 25.74 1 51.48 1 78 C0.01 77.01 -0.98 76.02 -2 75 C-2 74.34 -2 73.68 -2 73 C-1.34 73 -0.68 73 0 73 C0 48.91 0 24.82 0 0 Z " fill="#E4EDF2" transform="translate(145,245)"/>
<path d="M0 0 C0.33 0 0.66 0 1 0 C1.33 4.62 1.66 9.24 2 14 C3.32 13.34 4.64 12.68 6 12 C6.99 11.67 7.98 11.34 9 11 C9 14 9 14 6.953125 16.33984375 C5.61507813 17.62568359 5.61507813 17.62568359 4.25 18.9375 C3.36828125 19.79214844 2.4865625 20.64679688 1.578125 21.52734375 C0.72734375 22.34332031 -0.1234375 23.15929687 -1 24 C-2.33669325 25.32996493 -3.67133135 26.66201825 -5 28 C-4.52309796 26.37433394 -4.04340334 24.74948689 -3.5625 23.125 C-3.16224609 21.76761719 -3.16224609 21.76761719 -2.75390625 20.3828125 C-2 18 -2 18 -1 16 C-0.7677354 13.28737884 -0.58063765 10.59226874 -0.4375 7.875 C-0.37272461 6.74384766 -0.37272461 6.74384766 -0.30664062 5.58984375 C-0.2005168 3.72678112 -0.09974999 1.86341476 0 0 Z " fill="#D5E2E5" transform="translate(303,165)"/>
<path d="M0 0 C0.33 1.32 0.66 2.64 1 4 C-4.64800112 5.8417395 -10.08507728 6.54775239 -16 7 C-16 5 -16 5 -14.5 3.375 C-14.005 2.92125 -13.51 2.4675 -13 2 C-13.66 1.67 -14.32 1.34 -15 1 C-10.03926578 -0.32286246 -5.08888488 -0.08893197 0 0 Z " fill="#284B5B" transform="translate(313,278)"/>
<path d="M0 0 C0.66 0.33 1.32 0.66 2 1 C2.99 0.67 3.98 0.34 5 0 C5.66 0.33 6.32 0.66 7 1 C8.99960012 1.039992 11.00047242 1.04346799 13 1 C8 7.57142857 8 7.57142857 3 9 C0.5 7.25 0.5 7.25 -2 5 C-2 3.68 -2 2.36 -2 1 C-1.34 0.67 -0.68 0.34 0 0 Z " fill="#ECF1F3" transform="translate(246,232)"/>
<path d="M0 0 C0.88042969 0.00257813 1.76085937 0.00515625 2.66796875 0.0078125 C3.54066406 0.00523437 4.41335937 0.00265625 5.3125 0 C7.6420109 0.12166416 9.6248489 0.47766541 11.85546875 1.1328125 C11.52546875 2.7828125 11.19546875 4.4328125 10.85546875 6.1328125 C6.56546875 5.8028125 2.27546875 5.4728125 -2.14453125 5.1328125 C-2.47453125 3.8128125 -2.80453125 2.4928125 -3.14453125 1.1328125 C-2.14453125 0.1328125 -2.14453125 0.1328125 0 0 Z " fill="#14364E" transform="translate(189.14453125,292.8671875)"/>
<path d="M0 0 C0.33 0.99 0.66 1.98 1 3 C-0.00160156 3.38671875 -1.00320313 3.7734375 -2.03515625 4.171875 C-3.3777155 4.69763247 -4.72015716 5.22369027 -6.0625 5.75 C-6.71927734 6.00265625 -7.37605469 6.2553125 -8.05273438 6.515625 C-11.50510748 7.87616612 -14.68914929 9.34837353 -17.87109375 11.265625 C-19.41990234 12.12414062 -19.41990234 12.12414062 -21 13 C-21.66 12.67 -22.32 12.34 -23 12 C-6.16067653 -2.05355884 -6.16067653 -2.05355884 0 0 Z " fill="#E9F2F4" transform="translate(286,344)"/>
<path d="M0 0 C0.33 1.65 0.66 3.3 1 5 C-2.06246747 6.78409802 -4.22079273 7.22880021 -7.75 7.125 C-8.54921875 7.10695313 -9.3484375 7.08890625 -10.171875 7.0703125 C-10.77515625 7.04710937 -11.3784375 7.02390625 -12 7 C-9.36095629 5.58622659 -6.92879371 4.62759865 -4 4 C-4.98742187 4.09539062 -5.97484375 4.19078125 -6.9921875 4.2890625 C-8.27351563 4.39992188 -9.55484375 4.51078125 -10.875 4.625 C-12.78925781 4.79902344 -12.78925781 4.79902344 -14.7421875 4.9765625 C-15.81726563 4.98429687 -16.89234375 4.99203125 -18 5 C-18.66 4.34 -19.32 3.68 -20 3 C-17.60530271 2.49395076 -15.20948283 1.99500483 -12.8125 1.5 C-12.13896484 1.35691406 -11.46542969 1.21382813 -10.77148438 1.06640625 C-7.12490207 0.31930158 -3.72351043 -0.17352282 0 0 Z " fill="#2B4959" transform="translate(313,292)"/>
<path d="M0 0 C2.51083114 1.25541557 2.87125446 2.50063488 4 5 C2.76055724 5.86941494 1.50792941 6.72005457 0.25 7.5625 C-0.44609375 8.03816406 -1.1421875 8.51382812 -1.859375 9.00390625 C-4 10 -4 10 -6.265625 9.65234375 C-6.83796875 9.43707031 -7.4103125 9.22179687 -8 9 C-7.9375 6.75 -7.9375 6.75 -7 4 C-4.75412136 2.18298261 -2.67371119 1.21958756 0 0 Z " fill="#223E4E" transform="translate(275,302)"/>
<path d="M0 0 C7.625 1.75 7.625 1.75 11 4 C11 5.32 11 6.64 11 8 C12.32 8.66 13.64 9.32 15 10 C13 11 13 11 10.1796875 10.22265625 C9.08914062 9.83980469 7.99859375 9.45695313 6.875 9.0625 C5.77929688 8.68222656 4.68359375 8.30195313 3.5546875 7.91015625 C2.71164063 7.60980469 1.86859375 7.30945313 1 7 C1.33 6.01 1.66 5.02 2 4 C2.66 3.67 3.32 3.34 4 3 C2.68 2.67 1.36 2.34 0 2 C0 1.34 0 0.68 0 0 Z " fill="#294658" transform="translate(199,246)"/>
<path d="M0 0 C0.66 0.33 1.32 0.66 2 1 C2.33 2.65 2.66 4.3 3 6 C-1.95 6.66 -6.9 7.32 -12 8 C-7.44569288 3.44569288 -7.44569288 3.44569288 -3.875 1.6875 C-2.85019531 1.16736328 -2.85019531 1.16736328 -1.8046875 0.63671875 C-1.20914062 0.42660156 -0.61359375 0.21648437 0 0 Z " fill="#CBDDE1" transform="translate(281,356)"/>
<path d="M0 0 C3.73487777 0.4979837 5.81237635 0.87491756 9 3 C9 4.32 9 5.64 9 7 C3.58461538 7.36923077 3.58461538 7.36923077 0.625 5.5 C0.08875 5.005 -0.4475 4.51 -1 4 C-0.67 2.68 -0.34 1.36 0 0 Z " fill="#163546" transform="translate(216,315)"/>
<path d="M0 0 C4.77576339 0.4682121 8.04476345 1.24331998 12 4 C11.67 5.32 11.34 6.64 11 8 C7.2241456 7.47557578 4.77627845 6.67345333 2 4 C2 3.01 2 2.02 2 1 C1.34 0.67 0.68 0.34 0 0 Z " fill="#18394A" transform="translate(208,250)"/>
<path d="M0 0 C0.28875 0.61875 0.5775 1.2375 0.875 1.875 C1.93720042 4.13325765 1.93720042 4.13325765 4 6 C4 6.66 4 7.32 4 8 C1.64561267 9.42944945 0.51967567 10.08661261 -2.25 9.625 C-2.8275 9.41875 -3.405 9.2125 -4 9 C-4.25 6.1875 -4.25 6.1875 -4 3 C-2 1.125 -2 1.125 0 0 Z " fill="#1B2935" transform="translate(222,178)"/>
<path d="M0 0 C2.64 0.33 5.28 0.66 8 1 C8 1.99 8 2.98 8 4 C8.66 4.33 9.32 4.66 10 5 C9.67 5.99 9.34 6.98 9 8 C4.545 7.01 4.545 7.01 0 6 C0 4.02 0 2.04 0 0 Z " fill="#284458" transform="translate(204,280)"/>
<path d="M0 0 C2 1.375 2 1.375 4 3 C4 5 4 5 1.875 7.3125 C-1.00317722 10.00297001 -3.9455775 12.51384215 -7 15 C-7.66 14.34 -8.32 13.68 -9 13 C-8.04882866 11.8274869 -7.08882991 10.66212985 -6.125 9.5 C-5.59132813 8.8503125 -5.05765625 8.200625 -4.5078125 7.53125 C-4.01023437 7.0259375 -3.51265625 6.520625 -3 6 C-2.34 6 -1.68 6 -1 6 C-0.67 4.02 -0.34 2.04 0 0 Z " fill="#D6E3E5" transform="translate(364,165)"/>
<path d="M0 0 C0.99 0.33 1.98 0.66 3 1 C0.91495502 5.29273966 -1.57499116 7.35975166 -5.4765625 9.88671875 C-7.16025834 10.93860907 -7.16025834 10.93860907 -8 13 C-8.99 12.67 -9.98 12.34 -11 12 C-10.67 11.34 -10.34 10.68 -10 10 C-9.34 10 -8.68 10 -8 10 C-7.79375 9.46375 -7.5875 8.9275 -7.375 8.375 C-5.42003056 4.9982346 -2.81776305 2.69525161 0 0 Z " fill="#092434" transform="translate(359,130)"/>
<path d="M0 0 C-0.33 0.66 -0.66 1.32 -1 2 C-1.66 1.67 -2.32 1.34 -3 1 C-3 1.66 -3 2.32 -3 3 C-2.34 3.33 -1.68 3.66 -1 4 C-1.66 4.66 -2.32 5.32 -3 6 C-9.08695652 5.45652174 -9.08695652 5.45652174 -12 4 C-10.5505618 0.25561798 -10.5505618 0.25561798 -8.25 -0.8125 C-5.36824559 -1.0526462 -2.82252185 -0.57733402 0 0 Z " fill="#0F222A" transform="translate(220,349)"/>
<path d="M0 0 C0.33 0 0.66 0 1 0 C1 11.88 1 23.76 1 36 C2.65 36 4.3 36 6 36 C5 38 5 38 3 38.6875 C2.01 38.8421875 2.01 38.8421875 1 39 C0 38 0 38 -0.11352539 34.39819336 C-0.11336625 32.79540144 -0.10767063 31.1926044 -0.09765625 29.58984375 C-0.0962413 28.74780899 -0.09482635 27.90577423 -0.09336853 27.03822327 C-0.08775263 24.33794665 -0.07519748 21.63775172 -0.0625 18.9375 C-0.05748705 17.11132932 -0.05292379 15.28515734 -0.04882812 13.45898438 C-0.03777804 8.97262458 -0.02050279 4.48632616 0 0 Z " fill="#202A30" transform="translate(176,285)"/>
<path d="M0 0 C1.67542976 0.28604898 3.34385343 0.61781233 5 1 C5.625 3.375 5.625 3.375 6 6 C5.34 6.66 4.68 7.32 4 8 C1.375 7.625 1.375 7.625 -1 7 C-1.04254356 5.00045254 -1.04080783 2.99958364 -1 1 C-0.67 0.67 -0.34 0.34 0 0 Z " fill="#12232D" transform="translate(220,147)"/>
<path d="M0 0 C1.98 1.65 3.96 3.3 6 5 C2.8745041 7.64465038 -0.08788267 8.84414715 -4 10 C-3.52449439 8.51965236 -3.04448784 7.04074979 -2.5625 5.5625 C-2.29566406 4.73878906 -2.02882813 3.91507812 -1.75390625 3.06640625 C-1 1 -1 1 0 0 Z " fill="#CCDBE3" transform="translate(127,366)"/>
<path d="M0 0 C0.66 0.33 1.32 0.66 2 1 C-1.33333333 4.33333333 -4.66666667 7.66666667 -8 11 C-8.66 10.34 -9.32 9.68 -10 9 C-10 8.01 -10 7.02 -10 6 C-10.33 5.34 -10.66 4.68 -11 4 C-10.28972656 3.79503906 -9.57945312 3.59007812 -8.84765625 3.37890625 C-7.92855469 3.10949219 -7.00945312 2.84007812 -6.0625 2.5625 C-4.68771484 2.16224609 -4.68771484 2.16224609 -3.28515625 1.75390625 C-1.0597507 1.20973949 -1.0597507 1.20973949 0 0 Z " fill="#CEDFE3" transform="translate(275,215)"/>
<path d="M0 0 C1.67542976 0.28604898 3.34385343 0.61781233 5 1 C5.625 3.375 5.625 3.375 6 6 C5.34 6.66 4.68 7.32 4 8 C0.46428571 7.46428571 0.46428571 7.46428571 -1 6 C-1.125 3.5 -1.125 3.5 -1 1 C-0.67 0.67 -0.34 0.34 0 0 Z " fill="#2A3944" transform="translate(275,147)"/>
<path d="M0 0 C1.66611905 -0.042721 3.33382885 -0.04063832 5 0 C6 1 6 1 6.0625 4.0625 C6.041875 5.031875 6.02125 6.00125 6 7 C4.34385343 7.38218767 2.67542976 7.71395102 1 8 C0 7 0 7 -0.0625 3.4375 C-0.041875 2.303125 -0.02125 1.16875 0 0 Z " fill="#14212C" transform="translate(247,196)"/>
<path d="M0 0 C2.5 0.125 2.5 0.125 3.5 1.125 C3.625 3.625 3.625 3.625 3.5 6.125 C2.5 7.125 2.5 7.125 0 7.25 C-2.5 7.125 -2.5 7.125 -3.5 6.125 C-3.625 3.625 -3.625 3.625 -3.5 1.125 C-2.5 0.125 -2.5 0.125 0 0 Z " fill="#11242B" transform="translate(277.5,179.875)"/>
<path d="M0 0 C2.5 0.125 2.5 0.125 3.5 1.125 C3.625 3.625 3.625 3.625 3.5 6.125 C2.5 7.125 2.5 7.125 0 7.25 C-2.5 7.125 -2.5 7.125 -3.5 6.125 C-3.625 3.625 -3.625 3.625 -3.5 1.125 C-2.5 0.125 -2.5 0.125 0 0 Z " fill="#192A31" transform="translate(281.5,163.875)"/>
<path d="M0 0 C2.625 0.375 2.625 0.375 5 1 C5.625 2.875 5.625 2.875 6 5 C5.34 5.66 4.68 6.32 4 7 C1.375 6.625 1.375 6.625 -1 6 C-1.625 4.125 -1.625 4.125 -2 2 C-1.34 1.34 -0.68 0.68 0 0 Z " fill="#162930" transform="translate(216,164)"/>
<path d="M0 0 C0.33 0 0.66 0 1 0 C1.3077917 3.13837611 1.27813784 4.59343628 -0.53125 7.23828125 C-1.1809375 7.92277344 -1.830625 8.60726563 -2.5 9.3125 C-3.1496875 10.00988281 -3.799375 10.70726562 -4.46875 11.42578125 C-4.9740625 11.94527344 -5.479375 12.46476562 -6 13 C-6.99 12.01 -7.98 11.02 -9 10 C-7.625 8 -7.625 8 -6 6 C-5.34 6 -4.68 6 -4 6 C-3.67 5.01 -3.34 4.02 -3 3 C-2.34 3 -1.68 3 -1 3 C-0.67 2.01 -0.34 1.02 0 0 Z " fill="#DFEDF3" transform="translate(162,346)"/>
<path d="M0 0 C2.9375 1.25 2.9375 1.25 6 3 C6.875 5.1875 6.875 5.1875 7 7 C5.02 7.99 5.02 7.99 3 9 C1.35 7.68 -0.3 6.36 -2 5 C-1.34 3.35 -0.68 1.7 0 0 Z " fill="#284756" transform="translate(226,303)"/>
<path d="M0 0 C3.36720387 1.39332574 4.9859524 2.9789286 7 6 C6.38125 6.103125 5.7625 6.20625 5.125 6.3125 C2.63473516 6.87525373 2.63473516 6.87525373 1 10 C-0.32 8.35 -1.64 6.7 -3 5 C-2.34 4.67 -1.68 4.34 -1 4 C-0.34786708 1.97536745 -0.34786708 1.97536745 0 0 Z " fill="#19252D" transform="translate(363,155)"/>
<path d="M0 0 C2.625 0.375 2.625 0.375 5 1 C5.042721 2.66611905 5.04063832 4.33382885 5 6 C4 7 4 7 1.4375 7.0625 C0.2309375 7.0315625 0.2309375 7.0315625 -1 7 C-1.625 4.625 -1.625 4.625 -2 2 C-1.34 1.34 -0.68 0.68 0 0 Z " fill="#223039" transform="translate(266,135)"/>
<path d="M0 0 C0.66 0.33 1.32 0.66 2 1 C0.55746343 4.36591866 -1.33264727 6.51047079 -4 9 C-5.32 8.34 -6.64 7.68 -8 7 C-7.34 6.34 -6.68 5.68 -6 5 C-6.33 4.01 -6.66 3.02 -7 2 C-5.125 1.375 -5.125 1.375 -3 1 C-2.34 1.66 -1.68 2.32 -1 3 C-0.67 2.01 -0.34 1.02 0 0 Z " fill="#14252F" transform="translate(155,323)"/>
<path d="M0 0 C2.625 1.4375 2.625 1.4375 5 3 C4.67 4.65 4.34 6.3 4 8 C0.64404172 7.40072174 -1.37801226 6.15377564 -4 4 C-3.34 3.67 -2.68 3.34 -2 3 C-2 2.34 -2 1.68 -2 1 C-1.34 0.67 -0.68 0.34 0 0 Z " fill="#244253" transform="translate(227,273)"/>
<path d="M0 0 C0.6875 1.75 0.6875 1.75 1 4 C-0.1875 6 -0.1875 6 -2 8 C-2.61875 8.721875 -3.2375 9.44375 -3.875 10.1875 C-6.28378769 12.2420542 -7.8920547 12.65467274 -11 13 C-10.62488281 12.56429687 -10.24976563 12.12859375 -9.86328125 11.6796875 C-6.54140223 7.81392401 -3.25357073 3.92342352 0 0 Z " fill="#DCE6E9" transform="translate(300,205)"/>
<path d="M0 0 C2.125 0.375 2.125 0.375 4 1 C4.38218767 2.65614657 4.71395102 4.32457024 5 6 C4 7 4 7 1.4375 7.0625 C0.2309375 7.0315625 0.2309375 7.0315625 -1 7 C-1.625 4.625 -1.625 4.625 -2 2 C-1.34 1.34 -0.68 0.68 0 0 Z " fill="#1C2B33" transform="translate(266,192)"/>
<path d="M0 0 C1.67542976 0.28604898 3.34385343 0.61781233 5 1 C5.625 2.875 5.625 2.875 6 5 C5.34 5.66 4.68 6.32 4 7 C1.375 6.625 1.375 6.625 -1 6 C-1.042721 4.33388095 -1.04063832 2.66617115 -1 1 C-0.67 0.67 -0.34 0.34 0 0 Z " fill="#223137" transform="translate(230,192)"/>
<path d="M0 0 C4.72727273 4.36363636 4.72727273 4.36363636 5.9375 7.1875 C5.9684375 8.0846875 5.9684375 8.0846875 6 9 C5.34 9.66 4.68 10.32 4 11 C1.375 10.625 1.375 10.625 -1 10 C-1 9.01 -1 8.02 -1 7 C-0.01 6.67 0.98 6.34 2 6 C1.34 4.02 0.68 2.04 0 0 Z " fill="#2A3941" transform="translate(178,161)"/>
<path d="M0 0 C1.67542976 0.28604898 3.34385343 0.61781233 5 1 C5.625 2.875 5.625 2.875 6 5 C5.34 5.66 4.68 6.32 4 7 C1.375 6.625 1.375 6.625 -1 6 C-1.042721 4.33388095 -1.04063832 2.66617115 -1 1 C-0.67 0.67 -0.34 0.34 0 0 Z " fill="#202D36" transform="translate(230,135)"/>
<path d="M0 0 C1.12588014 0.95729916 2.2506715 1.91587895 3.375 2.875 C4.00148437 3.40867187 4.62796875 3.94234375 5.2734375 4.4921875 C6.55836651 5.61432007 7.79371975 6.79371975 9 8 C8.4225 7.773125 7.845 7.54625 7.25 7.3125 C4.87827523 6.73494807 4.87827523 6.73494807 2.75 8.4375 C2.1725 8.953125 1.595 9.46875 1 10 C0.01 8.68 -0.98 7.36 -2 6 C-1.34 5.34 -0.68 4.68 0 4 C0 2.68 0 1.36 0 0 Z " fill="#17232E" transform="translate(131,361)"/>
<path d="M0 0 C3.465 1.98 3.465 1.98 7 4 C6.67 5.32 6.34 6.64 6 8 C0.25 7.25 0.25 7.25 -2 5 C-1.34 5 -0.68 5 0 5 C0 3.35 0 1.7 0 0 Z " fill="#264153" transform="translate(220,285)"/>
<path d="M0 0 C1.34262065 0.29369827 2.67696283 0.6278958 4 1 C4.66 0.67 5.32 0.34 6 0 C6.66 0.66 7.32 1.32 8 2 C5.69 4.64 3.38 7.28 1 10 C0.34 9.67 -0.32 9.34 -1 9 C-0.34 7.35 0.32 5.7 1 4 C0.01 3.34 -0.98 2.68 -2 2 C-1.34 1.34 -0.68 0.68 0 0 Z " fill="#16242F" transform="translate(156,169)"/>
<path d="M0 0 C1.98 0 3.96 0 6 0 C6.33 1.32 6.66 2.64 7 4 C4.04335481 5.4783226 1.25770263 5.06032783 -2 5 C-2 4.01 -2 3.02 -2 2 C-1.34 2 -0.68 2 0 2 C0 1.34 0 0.68 0 0 Z " fill="#17374B" transform="translate(307,278)"/>
<path d="M0 0 C2.97 0 5.94 0 9 0 C9.33 1.32 9.66 2.64 10 4 C6.18510326 5.46726798 3.70988378 4.43336419 0 3 C0 2.01 0 1.02 0 0 Z " fill="#1C3F55" transform="translate(304,245)"/>
<path d="M0 0 C0.99 0.33 1.98 0.66 3 1 C1.50902342 4.7952131 -0.75700849 6.61042731 -4 9 C-4.99 7.68 -5.98 6.36 -7 5 C-6.01 4.67 -5.02 4.34 -4 4 C-2.62804426 2.70644173 -1.28817344 1.37701298 0 0 Z " fill="#DFE9ED" transform="translate(377,155)"/>
<path d="M0 0 C9.9 0 19.8 0 30 0 C30 0.33 30 0.66 30 1 C22.08 1 14.16 1 6 1 C6 1.66 6 2.32 6 3 C4.02 2.34 2.04 1.68 0 1 C0 0.67 0 0.34 0 0 Z " fill="#B7CED4" transform="translate(200,373)"/>
<path d="M0 0 C1.65 1.65 3.3 3.3 5 5 C4.360625 5.433125 3.72125 5.86625 3.0625 6.3125 C0.73253997 7.91239177 0.73253997 7.91239177 0 11 C-0.66 11 -1.32 11 -2 11 C-2.33 11.66 -2.66 12.32 -3 13 C-2.835 12.4225 -2.67 11.845 -2.5 11.25 C-1.85537969 8.73335631 -1.85537969 8.73335631 -2 5 C-1.01 4.67 -0.02 4.34 1 4 C0.67 2.68 0.34 1.36 0 0 Z " fill="#192732" transform="translate(150,354)"/>
<path d="M0 0 C0.598125 0.20625 1.19625 0.4125 1.8125 0.625 C1.125 3 1.125 3 -0.1875 5.625 C-2.8125 6.9375 -2.8125 6.9375 -5.1875 7.625 C-5.375 4.75 -5.375 4.75 -5.1875 1.625 C-2.1875 -0.375 -2.1875 -0.375 0 0 Z " fill="#14384A" transform="translate(282.1875,269.375)"/>
<path d="M0 0 C1.32 1.32 2.64 2.64 4 4 C2.75823305 4.70226141 1.50614401 5.38629109 0.25 6.0625 C-0.79414063 6.63677734 -0.79414063 6.63677734 -1.859375 7.22265625 C-4.36140628 8.1312406 -5.5332355 7.88336837 -8 7 C-7.13375 6.38125 -7.13375 6.38125 -6.25 5.75 C-3.97483401 3.98042645 -2.00004601 2.07147622 0 0 Z " fill="#C8D4DA" transform="translate(145,360)"/>
<path d="M0 0 C0.33 0 0.66 0 1 0 C1 2.31 1 4.62 1 7 C1.95712891 6.98259766 1.95712891 6.98259766 2.93359375 6.96484375 C4.17302734 6.95130859 4.17302734 6.95130859 5.4375 6.9375 C6.26121094 6.92589844 7.08492188 6.91429687 7.93359375 6.90234375 C10 7 10 7 11 8 C11.04080783 9.99958364 11.04254356 12.00045254 11 14 C10.01 14 9.02 14 8 14 C7.67 12.35 7.34 10.7 7 9 C4.69 8.67 2.38 8.34 0 8 C0 5.36 0 2.72 0 0 Z " fill="#4D5B62" transform="translate(353,243)"/>
<path d="M0 0 C2.64 0 5.28 0 8 0 C8 0.66 8 1.32 8 2 C7.34 2 6.68 2 6 2 C6.33 2.99 6.66 3.98 7 5 C5.02 5 3.04 5 1 5 C0.67 3.35 0.34 1.7 0 0 Z " fill="#1D3443" transform="translate(186,245)"/>
<path d="M0 0 C-0.33 1.32 -0.66 2.64 -1 4 C-1.61875 4.12375 -2.2375 4.2475 -2.875 4.375 C-5.19120832 4.87197356 -5.19120832 4.87197356 -7 7 C-8.98821313 7.39764263 -10.98944339 7.73775349 -13 8 C-13 7.34 -13 6.68 -13 6 C-11.21118264 4.99491199 -9.41885304 3.99607264 -7.625 3 C-6.62726563 2.443125 -5.62953125 1.88625 -4.6015625 1.3125 C-2 0 -2 0 0 0 Z " fill="#E0EEF1" transform="translate(285,304)"/>
<path d="M0 0 C0.763125 0.20625 1.52625 0.4125 2.3125 0.625 C2.6425 1.615 2.9725 2.605 3.3125 3.625 C2.9825 4.285 2.6525 4.945 2.3125 5.625 C-1.37504757 5.12668276 -3.29240662 4.52432357 -5.6875 1.625 C-2.6875 -0.375 -2.6875 -0.375 0 0 Z " fill="#143647" transform="translate(223.6875,302.375)"/>
<path d="M0 0 C2.05078125 0.03255208 4.1015625 0.06510417 6.15234375 0.09765625 C5.16234375 0.42765625 4.17234375 0.75765625 3.15234375 1.09765625 C3.15234375 2.08765625 3.15234375 3.07765625 3.15234375 4.09765625 C3.81234375 4.42765625 4.47234375 4.75765625 5.15234375 5.09765625 C2.84234375 5.09765625 0.53234375 5.09765625 -1.84765625 5.09765625 C-2.41015625 3.16015625 -2.41015625 3.16015625 -2.84765625 1.09765625 C-1.84765625 0.09765625 -1.84765625 0.09765625 0 0 Z " fill="#172F3F" transform="translate(188.84765625,292.90234375)"/>
<path d="M0 0 C1.65 1.65 3.3 3.3 5 5 C4.38125 5.268125 3.7625 5.53625 3.125 5.8125 C0.7004767 6.95556848 0.7004767 6.95556848 -1 10 C-1.99 8.68 -2.98 7.36 -4 6 C-3.525625 5.566875 -3.05125 5.13375 -2.5625 4.6875 C-0.76313043 2.97690387 -0.76313043 2.97690387 0 0 Z " fill="#25343D" transform="translate(380,146)"/>
<path d="M0 0 C6.875 2.75 6.875 2.75 8 5 C7.2575 5.144375 6.515 5.28875 5.75 5.4375 C4.8425 5.623125 3.935 5.80875 3 6 C2.2575 6.144375 1.515 6.28875 0.75 6.4375 C-0.11625 6.7159375 -0.11625 6.7159375 -1 7 C-1.33 7.66 -1.66 8.32 -2 9 C-2.33 8.34 -2.66 7.68 -3 7 C-1.68 5.68 -0.36 4.36 1 3 C0.67 2.01 0.34 1.02 0 0 Z " fill="#31414C" transform="translate(231,354)"/>
<path d="M0 0 C1.24546405 2.49092811 0.7767578 3.41080733 0 6 C-0.639375 6.103125 -1.27875 6.20625 -1.9375 6.3125 C-2.618125 6.539375 -3.29875 6.76625 -4 7 C-4.33 7.99 -4.66 8.98 -5 10 C-5.99 10 -6.98 10 -8 10 C-6.34908222 5.70761377 -3.26245434 3.1206085 0 0 Z " fill="#182229" transform="translate(321,169)"/>
<path d="M0 0 C0.66 0.99 1.32 1.98 2 3 C2.66 3.33 3.32 3.66 4 4 C3.05125 4.45375 2.1025 4.9075 1.125 5.375 C-2.00313679 6.80238254 -2.00313679 6.80238254 -4 9 C-4.33 8.01 -4.66 7.02 -5 6 C-3.59554165 3.7363436 -1.8032087 1.9791315 0 0 Z " fill="#19252F" transform="translate(152,233)"/>
<path d="M0 0 C0.33 0 0.66 0 1 0 C1.33 6.93 1.66 13.86 2 21 C-0.83967231 21 -3.23735711 20.59732819 -6 20 C-6 19.67 -6 19.34 -6 19 C-4.02 19 -2.04 19 0 19 C0 12.73 0 6.46 0 0 Z " fill="#465258" transform="translate(163,211)"/>
<path d="M0 0 C0.66 0.66 1.32 1.32 2 2 C1.51789063 2.39832031 1.03578125 2.79664063 0.5390625 3.20703125 C-0.09257812 3.73683594 -0.72421875 4.26664063 -1.375 4.8125 C-2.00148438 5.33457031 -2.62796875 5.85664063 -3.2734375 6.39453125 C-5.2221048 8.08225739 -5.2221048 8.08225739 -7 11 C-9.125 11.6875 -9.125 11.6875 -11 12 C-9.55928394 8.58301375 -7.76769435 6.68041215 -4.9375 4.3125 C-3.86822266 3.40951172 -3.86822266 3.40951172 -2.77734375 2.48828125 C-1.89755859 1.75158203 -1.89755859 1.75158203 -1 1 C-0.67 0.67 -0.34 0.34 0 0 Z " fill="#EAF0F3" transform="translate(334,170)"/>
<path d="M0 0 C0.93065133 2.60582371 1.14917407 3.64198224 0.0625 6.25 C-0.4634375 7.11625 -0.4634375 7.11625 -1 8 C-2.32 7.67 -3.64 7.34 -5 7 C-5 5.68 -5 4.36 -5 3 C-2.5 1.25 -2.5 1.25 0 0 Z " fill="#2A4251" transform="translate(271,258)"/>
<path d="M0 0 C0 4.61590466 -1.44028719 6.4136342 -4.625 9.75 C-5.40875 10.4925 -6.1925 11.235 -7 12 C-7 10.68 -7 9.36 -7 8 C-6.34 8 -5.68 8 -5 8 C-5 7.34 -5 6.68 -5 6 C-4.34 6 -3.68 6 -3 6 C-2.814375 5.071875 -2.814375 5.071875 -2.625 4.125 C-2 2 -2 2 0 0 Z " fill="#DAE4E5" transform="translate(346,186)"/>
<path d="M0 0 C0 0.99 0 1.98 0 3 C-4.95 5.475 -4.95 5.475 -10 8 C-7.45454545 2.90909091 -7.45454545 2.90909091 -5 1 C-2.3125 0.3125 -2.3125 0.3125 0 0 Z " fill="#1A2931" transform="translate(237,177)"/>
<path d="M0 0 C0.66 0.33 1.32 0.66 2 1 C-0.66666667 3.66666667 -3.33333333 6.33333333 -6 9 C-6.81017578 9.87205078 -6.81017578 9.87205078 -7.63671875 10.76171875 C-9 12 -9 12 -11 12 C-9.49650623 8.33213607 -7.36271208 6.31089607 -4.375 3.75 C-3.14910156 2.69039062 -3.14910156 2.69039062 -1.8984375 1.609375 C-1.27195313 1.07828125 -0.64546875 0.5471875 0 0 Z " fill="#0D273D" transform="translate(167,149)"/>
<path d="M0 0 C1.2065625 0.0309375 1.2065625 0.0309375 2.4375 0.0625 C2.1075 0.7225 1.7775 1.3825 1.4375 2.0625 C2.0975 2.3925 2.7575 2.7225 3.4375 3.0625 C3.4375 3.7225 3.4375 4.3825 3.4375 5.0625 C1.4575 5.0625 -0.5225 5.0625 -2.5625 5.0625 C-3.125 3.125 -3.125 3.125 -3.5625 1.0625 C-2.5625 0.0625 -2.5625 0.0625 0 0 Z " fill="#152329" transform="translate(163.5625,178.9375)"/>
<path d="M0 0 C2.0625 0.4375 2.0625 0.4375 4 1 C3.625 2.9375 3.625 2.9375 3 5 C2.01 5.495 2.01 5.495 1 6 C0.34 4.35 -0.32 2.7 -1 1 C-0.67 0.67 -0.34 0.34 0 0 Z M-1 5 C-0.34 5.33 0.32 5.66 1 6 C0.34 7.32 -0.32 8.64 -1 10 C-1.33 9.34 -1.66 8.68 -2 8 C-1.67 7.01 -1.34 6.02 -1 5 Z " fill="#182833" transform="translate(202,138)"/>
<path d="M0 0 C7.57142857 4 7.57142857 4 10 8 C6.2089881 6.55049545 2.6125362 4.84827434 -1 3 C-0.67 2.01 -0.34 1.02 0 0 Z " fill="#DEE8ED" transform="translate(225,348)"/>
<path d="M0 0 C0.66 0.66 1.32 1.32 2 2 C-0.97 4.475 -0.97 4.475 -4 7 C-4.66 5.68 -5.32 4.36 -6 3 C-4 2 -2 1 0 0 Z " fill="#DDE3E4" transform="translate(311,176)"/>
<path d="M0 0 C0.66 0.99 1.32 1.98 2 3 C0.54735962 3.8638129 -0.9123163 4.71580454 -2.375 5.5625 C-3.59316406 6.27599609 -3.59316406 6.27599609 -4.8359375 7.00390625 C-5.55007813 7.33261719 -6.26421875 7.66132813 -7 8 C-7.66 7.67 -8.32 7.34 -9 7 C-6.03 4.69 -3.06 2.38 0 0 Z " fill="#D0DADF" transform="translate(272,349)"/>
<path d="M0 0 C0 1.65 0 3.3 0 5 C-1.32 5.33 -2.64 5.66 -4 6 C-4 5.34 -4 4.68 -4 4 C-4.66 3.67 -5.32 3.34 -6 3 C-2.25 0 -2.25 0 0 0 Z " fill="#133548" transform="translate(282,300)"/>
<path d="M0 0 C4.62 0.99 9.24 1.98 14 3 C14 3.33 14 3.66 14 4 C9.21521178 4.09764874 4.72314313 3.77112541 0 3 C0 2.01 0 1.02 0 0 Z " fill="#E6F5F5" transform="translate(192,266)"/>
<path d="M0 0 C0.66 0.33 1.32 0.66 2 1 C0.75023244 4.65316671 0.32901247 5.78065836 -3 8 C-3.99 7.67 -4.98 7.34 -6 7 C-4.02 4.69 -2.04 2.38 0 0 Z " fill="#D9E2E6" transform="translate(307,197)"/>
<path d="M0 0 C4.10801767 1.18676066 5.89448334 1.89448334 9 5 C6.03 4.67 3.06 4.34 0 4 C-0.33 3.01 -0.66 2.02 -1 1 C-0.67 0.67 -0.34 0.34 0 0 Z " fill="#CCDCE3" transform="translate(222,359)"/>
<path d="M0 0 C0.66 0.33 1.32 0.66 2 1 C0.576875 1.928125 0.576875 1.928125 -0.875 2.875 C-3.94445109 4.81970969 -3.94445109 4.81970969 -6 7 C-8.625 6.625 -8.625 6.625 -11 6 C-8.66460191 4.44306794 -6.42031244 3.09799354 -3.9375 1.8125 C-2.89916016 1.26529297 -2.89916016 1.26529297 -1.83984375 0.70703125 C-1.23269531 0.47371094 -0.62554687 0.24039062 0 0 Z " fill="#DBE9ED" transform="translate(286,288)"/>
<path d="M0 0 C0.99 0.66 1.98 1.32 3 2 C2.34 3.32 1.68 4.64 1 6 C-1.475 5.01 -1.475 5.01 -4 4 C-3.67 3.34 -3.34 2.68 -3 2 C-2.01 2 -1.02 2 0 2 C0 1.34 0 0.68 0 0 Z " fill="#2C4355" transform="translate(231,260)"/>
<path d="M0 0 C0.66 0.99 1.32 1.98 2 3 C-0.31 4.98 -2.62 6.96 -5 9 C-5.66 8.67 -6.32 8.34 -7 8 C-4.69 5.36 -2.38 2.72 0 0 Z " fill="#E0E7EB" transform="translate(162,172)"/>
<path d="M0 0 C2.0625 0.4375 2.0625 0.4375 4 1 C3.01 1.99 2.02 2.98 1 4 C1.33 4.66 1.66 5.32 2 6 C2.66 6 3.32 6 4 6 C4 6.66 4 7.32 4 8 C2.35 7.67 0.7 7.34 -1 7 C-1.04254356 5.00045254 -1.04080783 2.99958364 -1 1 C-0.67 0.67 -0.34 0.34 0 0 Z " fill="#323D47" transform="translate(220,147)"/>
<path d="M0 0 C0.66 0 1.32 0 2 0 C2.66 1.32 3.32 2.64 4 4 C2.68 4.33 1.36 4.66 0 5 C0 5.66 0 6.32 0 7 C-0.66 6.67 -1.32 6.34 -2 6 C-1.125 1.125 -1.125 1.125 0 0 Z " fill="#0A1922" transform="translate(229,354)"/>
<path d="M0 0 C0.33 0.66 0.66 1.32 1 2 C2.32 1.67 3.64 1.34 5 1 C5 1.66 5 2.32 5 3 C6.65 3.33 8.3 3.66 10 4 C10 4.33 10 4.66 10 5 C3.9453125 5.1953125 3.9453125 5.1953125 2 5 C1.34 4.34 0.68 3.68 0 3 C0 2.01 0 1.02 0 0 Z " fill="#374E5D" transform="translate(186,309)"/>
<path d="M0 0 C0.66 0.33 1.32 0.66 2 1 C-1.465 3.97 -1.465 3.97 -5 7 C-5.66 6.34 -6.32 5.68 -7 5 C-7 4.34 -7 3.68 -7 3 C-4.69631264 1.93347808 -2.35981813 0.93578995 0 0 Z " fill="#BFD0D9" transform="translate(275,215)"/>
<path d="M0 0 C2 1.375 2 1.375 4 3 C4 3.66 4 4.32 4 5 C2.37373596 6.38232443 0.7074998 7.71937515 -1 9 C-1.08886184 5.80097361 -0.91058531 3.07322544 0 0 Z " fill="#CCDBE1" transform="translate(364,165)"/>
<path d="M0 0 C0.33 1.65 0.66 3.3 1 5 C-0.32 5.33 -1.64 5.66 -3 6 C-3.33 4.35 -3.66 2.7 -4 1 C-2 0 -2 0 0 0 Z " fill="#091A28" transform="translate(278,148)"/>
<path d="M0 0 C0 0.99 0 1.98 0 3 C-1.64453125 4.421875 -1.64453125 4.421875 -3.8125 5.75 C-4.52019531 6.19859375 -5.22789062 6.6471875 -5.95703125 7.109375 C-8 8 -8 8 -11 7 C-7.37 4.69 -3.74 2.38 0 0 Z " fill="#0A2839" transform="translate(186,136)"/>
<path d="M0 0 C2.97 0 5.94 0 9 0 C9 0.66 9 1.32 9 2 C4.545 2.495 4.545 2.495 0 3 C0 2.01 0 1.02 0 0 Z " fill="#142D40" transform="translate(187,308)"/>
<path d="M0 0 C0.66 0 1.32 0 2 0 C2.99 2.31 3.98 4.62 5 7 C4.01 7.66 3.02 8.32 2 9 C1.814375 7.824375 1.814375 7.824375 1.625 6.625 C1.20882007 3.85942178 1.20882007 3.85942178 -1 2 C-0.67 1.34 -0.34 0.68 0 0 Z " fill="#C2D2D7" transform="translate(353,198)"/>
<path d="M0 0 C1.65 0.33 3.3 0.66 5 1 C3.35 2.98 1.7 4.96 0 7 C-0.66 6.34 -1.32 5.68 -2 5 C-1.34 3.35 -0.68 1.7 0 0 Z " fill="#E1E6E8" transform="translate(323,161)"/>
<path d="M0 0 C0.99 0.33 1.98 0.66 3 1 C3 1.99 3 2.98 3 4 C2.34 4.66 1.68 5.32 1 6 C-1.125 5.625 -1.125 5.625 -3 5 C-2.01 3.35 -1.02 1.7 0 0 Z " fill="#143647" transform="translate(299,247)"/>
<path d="M0 0 C-1.07401108 2.91517292 -1.77810176 4.77810176 -4 7 C-4.66 5.02 -5.32 3.04 -6 1 C-3 0 -3 0 0 0 Z " fill="#294657" transform="translate(299,247)"/>
<path d="M0 0 C2.62187494 1.04874998 3.79371361 1.64931313 5.25 4.125 C5.4975 4.74375 5.745 5.3625 6 6 C3 6 3 6 0.8125 4 C0.214375 3.34 -0.38375 2.68 -1 2 C-0.67 1.34 -0.34 0.68 0 0 Z " fill="#DDE5E7" transform="translate(345,229)"/>
<path d="M0 0 C0.99 0.99 1.98 1.98 3 3 C2.071875 3.3403125 2.071875 3.3403125 1.125 3.6875 C-1.61410209 5.37929835 -2.05024472 6.99244161 -3 10 C-3.66 9.67 -4.32 9.34 -5 9 C-4.3566152 7.686298 -3.71021785 6.37407102 -3.0625 5.0625 C-2.70285156 4.33160156 -2.34320313 3.60070312 -1.97265625 2.84765625 C-1 1 -1 1 0 0 Z " fill="#E2EBEF" transform="translate(146,195)"/>
<path d="M0 0 C0.66 0.33 1.32 0.66 2 1 C1.67 2.32 1.34 3.64 1 5 C-0.32 5.33 -1.64 5.66 -3 6 C-2.42655063 3.13275314 -2.1385485 2.1385485 0 0 Z " fill="#1C2930" transform="translate(182,166)"/>
<path d="M0 0 C6.64583333 2.29166667 6.64583333 2.29166667 8 5 C4.37 4.01 0.74 3.02 -3 2 C-2.01 1.34 -1.02 0.68 0 0 Z " fill="#C5D4DC" transform="translate(215,377)"/>
<path d="M0 0 C1.98 0 3.96 0 6 0 C2.30827405 3.53790403 -1.09390595 3.59115883 -6 4 C-3 2 -3 2 0 2 C0 1.34 0 0.68 0 0 Z " fill="#EBF7F9" transform="translate(191,351)"/>
<path d="M0 0 C0.99 0.33 1.98 0.66 3 1 C3.33 1.99 3.66 2.98 4 4 C1.69 4.33 -0.62 4.66 -3 5 C-2.34 4.67 -1.68 4.34 -1 4 C-0.34786708 1.97536745 -0.34786708 1.97536745 0 0 Z " fill="#E2E9EB" transform="translate(283,343)"/>
<path d="M0 0 C2.00720923 0.28674418 4.0085944 0.61866701 6 1 C5.01 1.495 5.01 1.495 4 2 C4.33 2.99 4.66 3.98 5 5 C3.35 4.67 1.7 4.34 0 4 C-0.33 3.01 -0.66 2.02 -1 1 C-0.67 0.67 -0.34 0.34 0 0 Z " fill="#123343" transform="translate(221,272)"/>
<path d="M0 0 C4.3890815 0.51035831 7.33708062 1.52214277 11 4 C10.34 4.66 9.68 5.32 9 6 C6.03 4.35 3.06 2.7 0 1 C0 0.67 0 0.34 0 0 Z " fill="#DEEAEF" transform="translate(223,255)"/>
<path d="M0 0 C2.125 0.9375 2.125 0.9375 4 2 C3.67 2.99 3.34 3.98 3 5 C1.35 4.67 -0.3 4.34 -2 4 C-2 3.01 -2 2.02 -2 1 C-1.34 0.67 -0.68 0.34 0 0 Z " fill="#F6FBFA" transform="translate(246,232)"/>
<path d="M0 0 C0.66 0.33 1.32 0.66 2 1 C2 1.66 2 2.32 2 3 C-1.96 4.98 -1.96 4.98 -6 7 C-5.67 6.01 -5.34 5.02 -5 4 C-4.34 4 -3.68 4 -3 4 C-3 3.34 -3 2.68 -3 2 C-2.01 2 -1.02 2 0 2 C0 1.34 0 0.68 0 0 Z " fill="#19252C" transform="translate(281,232)"/>
<path d="M0 0 C0.66 0.66 1.32 1.32 2 2 C1.74739753 5.78903708 -0.27849443 7.54186593 -3 10 C-2.01 6.7 -1.02 3.4 0 0 Z " fill="#ADBAC3" transform="translate(301,183)"/>
<path d="M0 0 C3.7952131 1.49097658 5.61042731 3.75700849 8 7 C7.01 7 6.02 7 5 7 C0 1.53488372 0 1.53488372 0 0 Z " fill="#DDE6E9" transform="translate(169,181)"/>
<path d="M0 0 C0.99 0 1.98 0 3 0 C2.67 1.65 2.34 3.3 2 5 C1.01 5 0.02 5 -1 5 C-1.33 4.01 -1.66 3.02 -2 2 C-1.34 1.34 -0.68 0.68 0 0 Z " fill="#0F2028" transform="translate(377,146)"/>
<path d="M0 0 C2.0625 0.4375 2.0625 0.4375 4 1 C1.78065836 4.32901247 0.65316671 4.75023244 -3 6 C-1.125 1.125 -1.125 1.125 0 0 Z " fill="#2C3B46" transform="translate(267,361)"/>
<path d="M0 0 C-0.66 1.65 -1.32 3.3 -2 5 C-2.99 5 -3.98 5 -5 5 C-5 4.01 -5 3.02 -5 2 C-2 0 -2 0 0 0 Z " fill="#D0E0E6" transform="translate(159,353)"/>
<path d="M0 0 C0.99 0 1.98 0 3 0 C2.67 0.99 2.34 1.98 2 3 C1.34 3 0.68 3 0 3 C0 3.66 0 4.32 0 5 C-3 4 -3 4 -5 2 C-3.35 2 -1.7 2 0 2 C0 1.34 0 0.68 0 0 Z " fill="#0C3145" transform="translate(297,280)"/>
<path d="M0 0 C1.98 0 3.96 0 6 0 C6.33 1.65 6.66 3.3 7 5 C6.01 4.67 5.02 4.34 4 4 C4 3.01 4 2.02 4 1 C2.35 1.33 0.7 1.66 -1 2 C-0.67 1.34 -0.34 0.68 0 0 Z " fill="#123246" transform="translate(198,280)"/>
<path d="M0 0 C0.66 0.33 1.32 0.66 2 1 C0.75453595 4.73639216 -0.63404953 5.18756513 -4 7 C-4 6.01 -4 5.02 -4 4 C-3.01 3.67 -2.02 3.34 -1 3 C-0.67 2.01 -0.34 1.02 0 0 Z " fill="#D0DEE0" transform="translate(263,227)"/>
<path d="M0 0 C1.65 1.65 3.3 3.3 5 5 C4.01 5.33 3.02 5.66 2 6 C1.67 5.01 1.34 4.02 1 3 C0.01 2.67 -0.98 2.34 -2 2 C-1.34 1.34 -0.68 0.68 0 0 Z " fill="#27393E" transform="translate(166,179)"/>
<path d="M0 0 C1.32 0.33 2.64 0.66 4 1 C1.60490662 3.89932357 -0.31245243 4.50168276 -4 5 C-2.68 3.35 -1.36 1.7 0 0 Z " fill="#1D2D34" transform="translate(358,178)"/>
<path d="M0 0 C-1.29299694 2.88437779 -2.65941363 4.87219421 -5 7 C-5.66 6.01 -6.32 5.02 -7 4 C-2.25 0 -2.25 0 0 0 Z " fill="#E3E9EB" transform="translate(261,173)"/>
<path d="M0 0 C-1.65 1.32 -3.3 2.64 -5 4 C-5.99 2.68 -6.98 1.36 -8 0 C-2.25 -1.125 -2.25 -1.125 0 0 Z " fill="#D1E1E7" transform="translate(378,160)"/>
<path d="M0 0 C0.99 0.33 1.98 0.66 3 1 C2.01 1.495 2.01 1.495 1 2 C1.33 2.99 1.66 3.98 2 5 C1.01 5.99 0.02 6.98 -1 8 C-1.66 7.01 -2.32 6.02 -3 5 C-2.34 4.67 -1.68 4.34 -1 4 C-0.34786708 1.97536745 -0.34786708 1.97536745 0 0 Z " fill="#202B31" transform="translate(363,155)"/>
<path d="M0 0 C0.99 0.33 1.98 0.66 3 1 C4.1875 3.5625 4.1875 3.5625 5 6 C2.11562221 4.70700306 0.12780579 3.34058637 -2 1 C-1.34 0.67 -0.68 0.34 0 0 Z " fill="#1C2831" transform="translate(322,155)"/>
<path d="M0 0 C1.32 0 2.64 0 4 0 C3.67 0.66 3.34 1.32 3 2 C2.34 1.67 1.68 1.34 1 1 C1 1.66 1 2.32 1 3 C1.66 3.33 2.32 3.66 3 4 C1.02 4.99 1.02 4.99 -1 6 C-1.042721 4.33388095 -1.04063832 2.66617115 -1 1 C-0.67 0.67 -0.34 0.34 0 0 Z " fill="#0B1B23" transform="translate(216,349)"/>
<path d="M0 0 C2.64 0.66 5.28 1.32 8 2 C4.25 4 4.25 4 2 4 C1.01 3.67 0.02 3.34 -1 3 C-0.67 2.01 -0.34 1.02 0 0 Z " fill="#1D2932" transform="translate(211,346)"/>
<path d="M0 0 C0.66 0.33 1.32 0.66 2 1 C2 2.32 2 3.64 2 5 C0.02 5 -1.96 5 -4 5 C-4 4.34 -4 3.68 -4 3 C-3.01 2.67 -2.02 2.34 -1 2 C-0.67 1.34 -0.34 0.68 0 0 Z " fill="#27404A" transform="translate(223,317)"/>
<path d="M0 0 C2.3125 0.8125 2.3125 0.8125 4 2 C2.02 2.99 0.04 3.98 -2 5 C-2.99 4.34 -3.98 3.68 -5 3 C-2.75 1.375 -2.75 1.375 0 0 Z " fill="#254656" transform="translate(219,300)"/>
<path d="M0 0 C0.99 0.33 1.98 0.66 3 1 C2.625 3.9375 2.625 3.9375 2 7 C1.01 7.495 1.01 7.495 0 8 C-0.99 7.34 -1.98 6.68 -3 6 C-2.01 5.67 -1.02 5.34 0 5 C0 3.35 0 1.7 0 0 Z " fill="#E2F2F5" transform="translate(313,292)"/>
<path d="M0 0 C1.32 0.66 2.64 1.32 4 2 C4 2.99 4 3.98 4 5 C2.68 4.67 1.36 4.34 0 4 C0 2.68 0 1.36 0 0 Z " fill="#264251" transform="translate(268,276)"/>
<path d="M0 0 C2.03833424 1.2739589 4.03852126 2.61061923 6 4 C6 4.66 6 5.32 6 6 C5.01 6.33 4.02 6.66 3 7 C0 2.25 0 2.25 0 0 Z " fill="#E3ECED" transform="translate(227,240)"/>
<path d="M0 0 C0.66 1.32 1.32 2.64 2 4 C-0.31 4.66 -2.62 5.32 -5 6 C-3.35 4.02 -1.7 2.04 0 0 Z " fill="#D1DDE3" transform="translate(294,212)"/>
<path d="M0 0 C-0.33 1.32 -0.66 2.64 -1 4 C-3.4375 3.625 -3.4375 3.625 -6 3 C-6.33 2.34 -6.66 1.68 -7 1 C-2.25 0 -2.25 0 0 0 Z " fill="#19262F" transform="translate(316,210)"/>
<path d="M0 0 C0.33 0.66 0.66 1.32 1 2 C1.66 2 2.32 2 3 2 C2.67 3.65 2.34 5.3 2 7 C1.67 6.01 1.34 5.02 1 4 C-1.01508358 3.26676204 -1.01508358 3.26676204 -3 3 C-2.01 2.01 -1.02 1.02 0 0 Z " fill="#1C2B36" transform="translate(353,183)"/>
<path d="M0 0 C0 0.66 0 1.32 0 2 C-2.31 2.33 -4.62 2.66 -7 3 C-7.33 2.34 -7.66 1.68 -8 1 C-5.07175348 0.02391783 -3.04386724 -0.08226668 0 0 Z " fill="#082239" transform="translate(241,114)"/>
</svg>
